<svg width="96" height="10" viewBox="0 0 96 10" fill="none" xmlns="http://www.w3.org/2000/svg">
<g clip-path="url(#clip0_1042_144)">
<path d="M4.89209 0.00366211L6.3042 9.48999H3.77881L3.65576 7.78491H2.771L2.62451 9.48999H0.0698242L1.32373 0.00366211H4.89209ZM3.58545 6.10327C3.46045 5.02905 3.33545 3.70288 3.21045 2.12476C2.96045 3.93726 2.8042 5.26343 2.7417 6.10327H3.58545ZM9.02295 1.7146L8.9292 2.73413C9.27295 2.00366 9.771 1.61694 10.4233 1.57397V4.3103C9.98975 4.3103 9.67139 4.3689 9.46826 4.48608C9.26514 4.60327 9.14014 4.76733 9.09326 4.97827C9.04639 5.1853 9.02295 5.66577 9.02295 6.41968V9.48999H6.65576V1.7146H9.02295ZM16.189 4.65015H13.9565V3.75366C13.9565 3.44116 13.9312 3.23022 13.8804 3.12085C13.8296 3.00757 13.7358 2.95093 13.5991 2.95093C13.4624 2.95093 13.3706 2.99976 13.3237 3.09741C13.2769 3.19507 13.2534 3.41382 13.2534 3.75366V7.42163C13.2534 7.69897 13.2886 7.90796 13.3589 8.04858C13.4292 8.1853 13.5327 8.25366 13.6694 8.25366C13.8296 8.25366 13.937 8.1814 13.9917 8.03687C14.0503 7.89233 14.0796 7.6189 14.0796 7.21655V6.29077H16.189C16.1851 6.91187 16.1616 7.37866 16.1187 7.69116C16.0796 7.99976 15.9487 8.31812 15.7261 8.64624C15.5073 8.97046 15.2202 9.21655 14.8647 9.38452C14.5093 9.54858 14.0698 9.63062 13.5464 9.63062C12.8784 9.63062 12.3491 9.51733 11.9585 9.29077C11.5679 9.0603 11.2905 8.73999 11.1265 8.32983C10.9663 7.91577 10.8862 7.32983 10.8862 6.57202V4.36304C10.8862 3.70288 10.9526 3.20483 11.0854 2.8689C11.2183 2.53296 11.5015 2.23413 11.9351 1.97241C12.3687 1.70679 12.896 1.57397 13.5171 1.57397C14.1343 1.57397 14.6616 1.70483 15.0991 1.96655C15.5366 2.22827 15.8276 2.55835 15.9722 2.95679C16.1167 3.35522 16.189 3.91968 16.189 4.65015ZM19.2651 0.00366211V2.13647C19.4683 1.94897 19.687 1.80835 19.9214 1.7146C20.1597 1.62085 20.4136 1.57397 20.6831 1.57397C21.0972 1.57397 21.4487 1.67944 21.7378 1.89038C22.0308 2.10132 22.2085 2.34546 22.271 2.6228C22.3374 2.89624 22.3706 3.39819 22.3706 4.12866V9.48999H20.0034V4.01733C20.0034 3.56421 19.98 3.27319 19.9331 3.14429C19.8901 3.01538 19.7905 2.95093 19.6343 2.95093C19.4897 2.95093 19.3921 3.01733 19.3413 3.15015C19.2905 3.28296 19.2651 3.54663 19.2651 3.94116V9.48999H16.8979V0.00366211H19.2651ZM25.6284 0.00366211V1.23999H23.1909V0.00366211H25.6284ZM25.6284 1.7146V9.48999H23.1909V1.7146H25.6284ZM28.98 0.67749V1.9021H29.6187V3.13257H28.98V7.29272C28.98 7.80444 29.0054 8.0896 29.0562 8.14819C29.1108 8.20679 29.3315 8.23608 29.7183 8.23608V9.48999H28.7632C28.2241 9.48999 27.8394 9.46851 27.6089 9.42554C27.3784 9.37866 27.1753 9.27515 26.9995 9.11499C26.8237 8.95093 26.7144 8.76538 26.6714 8.55835C26.6284 8.34741 26.6069 7.85522 26.6069 7.08179V3.13257H26.0972V1.9021H26.6069V0.67749H28.98ZM35.5015 5.73999H32.437V7.42163C32.437 7.77319 32.4624 7.99976 32.5132 8.10132C32.564 8.20288 32.6616 8.25366 32.8062 8.25366C32.9858 8.25366 33.105 8.18726 33.1636 8.05444C33.2261 7.91772 33.2573 7.65601 33.2573 7.26929V6.2439H35.5015V6.81812C35.5015 7.29858 35.4702 7.66772 35.4077 7.92554C35.3491 8.18335 35.2085 8.45874 34.9858 8.75171C34.7632 9.04468 34.48 9.26538 34.1362 9.41382C33.7964 9.55835 33.3687 9.63062 32.853 9.63062C32.353 9.63062 31.9116 9.55835 31.5288 9.41382C31.146 9.26929 30.8472 9.07202 30.6323 8.82202C30.4214 8.56812 30.2749 8.29077 30.1929 7.98999C30.1108 7.6853 30.0698 7.2439 30.0698 6.66577V4.39819C30.0698 3.71851 30.1616 3.18335 30.3452 2.79272C30.5288 2.39819 30.8296 2.09741 31.2476 1.89038C31.6655 1.67944 32.146 1.57397 32.689 1.57397C33.353 1.57397 33.8999 1.70093 34.3296 1.95483C34.7632 2.20483 35.0659 2.53882 35.2378 2.95679C35.4136 3.37085 35.5015 3.95483 35.5015 4.70874V5.73999ZM33.1284 4.47437V3.90601C33.1284 3.50366 33.1069 3.2439 33.064 3.12671C33.021 3.00952 32.9331 2.95093 32.8003 2.95093C32.6362 2.95093 32.5347 3.00171 32.4956 3.10327C32.4565 3.20093 32.437 3.46851 32.437 3.90601V4.47437H33.1284ZM41.5132 4.65015H39.2808V3.75366C39.2808 3.44116 39.2554 3.23022 39.2046 3.12085C39.1538 3.00757 39.0601 2.95093 38.9233 2.95093C38.7866 2.95093 38.6948 2.99976 38.6479 3.09741C38.6011 3.19507 38.5776 3.41382 38.5776 3.75366V7.42163C38.5776 7.69897 38.6128 7.90796 38.6831 8.04858C38.7534 8.1853 38.8569 8.25366 38.9937 8.25366C39.1538 8.25366 39.2612 8.1814 39.3159 8.03687C39.3745 7.89233 39.4038 7.6189 39.4038 7.21655V6.29077H41.5132C41.5093 6.91187 41.4858 7.37866 41.4429 7.69116C41.4038 7.99976 41.2729 8.31812 41.0503 8.64624C40.8315 8.97046 40.5444 9.21655 40.189 9.38452C39.8335 9.54858 39.394 9.63062 38.8706 9.63062C38.2026 9.63062 37.6733 9.51733 37.2827 9.29077C36.8921 9.0603 36.6147 8.73999 36.4507 8.32983C36.2905 7.91577 36.2104 7.32983 36.2104 6.57202V4.36304C36.2104 3.70288 36.2769 3.20483 36.4097 2.8689C36.5425 2.53296 36.8257 2.23413 37.2593 1.97241C37.6929 1.70679 38.2202 1.57397 38.8413 1.57397C39.4585 1.57397 39.9858 1.70483 40.4233 1.96655C40.8608 2.22827 41.1519 2.55835 41.2964 2.95679C41.4409 3.35522 41.5132 3.91968 41.5132 4.65015ZM44.7183 0.67749V1.9021H45.3569V3.13257H44.7183V7.29272C44.7183 7.80444 44.7437 8.0896 44.7944 8.14819C44.8491 8.20679 45.0698 8.23608 45.4565 8.23608V9.48999H44.5015C43.9624 9.48999 43.5776 9.46851 43.3472 9.42554C43.1167 9.37866 42.9136 9.27515 42.7378 9.11499C42.562 8.95093 42.4526 8.76538 42.4097 8.55835C42.3667 8.34741 42.3452 7.85522 42.3452 7.08179V3.13257H41.8354V1.9021H42.3452V0.67749H44.7183ZM51.2983 1.7146V9.48999H48.8901L48.9312 8.84546C48.7671 9.10718 48.564 9.30444 48.3218 9.43726C48.0835 9.56616 47.8081 9.63062 47.4956 9.63062C47.1401 9.63062 46.8452 9.56812 46.6108 9.44312C46.3765 9.31812 46.2026 9.1521 46.0894 8.94507C45.98 8.73804 45.9116 8.52319 45.8843 8.30054C45.8569 8.07397 45.8433 7.62671 45.8433 6.95874V1.7146H48.2104V7.00562C48.2104 7.61108 48.228 7.97046 48.2632 8.08374C48.3022 8.19702 48.4038 8.25366 48.5679 8.25366C48.7437 8.25366 48.8472 8.19507 48.8784 8.07788C48.9136 7.96069 48.9312 7.58374 48.9312 6.94702V1.7146H51.2983ZM54.5151 1.7146L54.4214 2.73413C54.7651 2.00366 55.2632 1.61694 55.9155 1.57397V4.3103C55.4819 4.3103 55.1636 4.3689 54.9604 4.48608C54.7573 4.60327 54.6323 4.76733 54.5854 4.97827C54.5386 5.1853 54.5151 5.66577 54.5151 6.41968V9.48999H52.1479V1.7146H54.5151ZM61.8101 5.73999H58.7456V7.42163C58.7456 7.77319 58.771 7.99976 58.8218 8.10132C58.8726 8.20288 58.9702 8.25366 59.1147 8.25366C59.2944 8.25366 59.4136 8.18726 59.4722 8.05444C59.5347 7.91772 59.5659 7.65601 59.5659 7.26929V6.2439H61.8101V6.81812C61.8101 7.29858 61.7788 7.66772 61.7163 7.92554C61.6577 8.18335 61.5171 8.45874 61.2944 8.75171C61.0718 9.04468 60.7886 9.26538 60.4448 9.41382C60.105 9.55835 59.6772 9.63062 59.1616 9.63062C58.6616 9.63062 58.2202 9.55835 57.8374 9.41382C57.4546 9.26929 57.1558 9.07202 56.9409 8.82202C56.73 8.56812 56.5835 8.29077 56.5015 7.98999C56.4194 7.6853 56.3784 7.2439 56.3784 6.66577V4.39819C56.3784 3.71851 56.4702 3.18335 56.6538 2.79272C56.8374 2.39819 57.1382 2.09741 57.5562 1.89038C57.9741 1.67944 58.4546 1.57397 58.9976 1.57397C59.6616 1.57397 60.2085 1.70093 60.6382 1.95483C61.0718 2.20483 61.3745 2.53882 61.5464 2.95679C61.7222 3.37085 61.8101 3.95483 61.8101 4.70874V5.73999ZM59.437 4.47437V3.90601C59.437 3.50366 59.4155 3.2439 59.3726 3.12671C59.3296 3.00952 59.2417 2.95093 59.1089 2.95093C58.9448 2.95093 58.8433 3.00171 58.8042 3.10327C58.7651 3.20093 58.7456 3.46851 58.7456 3.90601V4.47437H59.437ZM74.062 0.00366211L72.9663 9.48999H69.8843C69.603 8.03296 69.355 6.37671 69.1401 4.52124C69.0425 5.31421 68.814 6.97046 68.4546 9.48999H65.3901L64.2886 0.00366211H66.6851L66.937 3.31421L67.1948 6.50757C67.2847 4.85522 67.5112 2.68726 67.8745 0.00366211H70.4409C70.4761 0.281006 70.5659 1.32397 70.7104 3.13257L70.98 6.73608C71.1167 4.44312 71.3452 2.19897 71.6655 0.00366211H74.062ZM79.8394 4.44507V6.34937C79.8394 7.04858 79.8042 7.56226 79.7339 7.89038C79.6636 8.2146 79.5132 8.51929 79.2827 8.80444C79.0522 9.08569 78.7554 9.29468 78.3921 9.4314C78.0327 9.56421 77.6187 9.63062 77.1499 9.63062C76.6265 9.63062 76.1831 9.57397 75.8198 9.46069C75.4565 9.34351 75.1733 9.16968 74.9702 8.93921C74.771 8.70483 74.6284 8.42358 74.5425 8.09546C74.4565 7.76343 74.4136 7.26733 74.4136 6.60718V4.61499C74.4136 3.89233 74.4917 3.32788 74.6479 2.92163C74.8042 2.51538 75.0854 2.18921 75.4917 1.94312C75.8979 1.69702 76.4175 1.57397 77.0503 1.57397C77.5815 1.57397 78.0366 1.65405 78.4155 1.81421C78.7983 1.97046 79.0933 2.17554 79.3003 2.42944C79.5073 2.68335 79.6479 2.94507 79.7222 3.2146C79.8003 3.48413 79.8394 3.89429 79.8394 4.44507ZM77.4722 3.85913C77.4722 3.46069 77.4507 3.21069 77.4077 3.10913C77.3647 3.00366 77.2729 2.95093 77.1323 2.95093C76.9917 2.95093 76.8979 3.00366 76.8511 3.10913C76.8042 3.21069 76.7808 3.46069 76.7808 3.85913V7.3689C76.7808 7.73608 76.8042 7.97632 76.8511 8.0896C76.8979 8.19897 76.9897 8.25366 77.1265 8.25366C77.2671 8.25366 77.3589 8.20288 77.4019 8.10132C77.4487 7.99976 77.4722 7.78101 77.4722 7.44507V3.85913ZM82.9917 1.7146L82.8979 2.73413C83.2417 2.00366 83.7397 1.61694 84.3921 1.57397V4.3103C83.9585 4.3103 83.6401 4.3689 83.437 4.48608C83.2339 4.60327 83.1089 4.76733 83.062 4.97827C83.0151 5.1853 82.9917 5.66577 82.9917 6.41968V9.48999H80.6245V1.7146H82.9917ZM90.0229 1.7146L89.062 4.81421L90.3101 9.48999H88.0308L87.2925 6.10327V9.48999H84.9253V0.00366211H87.2925V3.98804L88.0308 1.7146H90.0229ZM95.5015 4.19897H93.4038V3.7771C93.4038 3.41772 93.3823 3.19116 93.3394 3.09741C93.3003 2.99976 93.1987 2.95093 93.0347 2.95093C92.9019 2.95093 92.8022 2.99585 92.7358 3.08569C92.6694 3.17163 92.6362 3.30249 92.6362 3.47827C92.6362 3.71655 92.6519 3.89233 92.6831 4.00562C92.7183 4.11499 92.8179 4.23608 92.9819 4.3689C93.1499 4.50171 93.4917 4.69507 94.0073 4.94897C94.6948 5.28491 95.146 5.60132 95.3608 5.89819C95.5757 6.19507 95.6831 6.62671 95.6831 7.19312C95.6831 7.82593 95.6011 8.30444 95.437 8.62866C95.2729 8.94897 94.9976 9.19702 94.6108 9.3728C94.228 9.54468 93.7651 9.63062 93.2222 9.63062C92.6206 9.63062 92.105 9.53687 91.6753 9.34937C91.2495 9.16187 90.9565 8.90796 90.7964 8.58765C90.6362 8.26733 90.5562 7.78296 90.5562 7.13452V6.75952H92.6538V7.25171C92.6538 7.66968 92.6792 7.94116 92.73 8.06616C92.7847 8.19116 92.8901 8.25366 93.0464 8.25366C93.2144 8.25366 93.3315 8.21265 93.3979 8.13062C93.4644 8.04468 93.4976 7.86694 93.4976 7.59741C93.4976 7.22632 93.4546 6.9939 93.3687 6.90015C93.2788 6.8064 92.8198 6.52905 91.9917 6.06812C91.2964 5.67749 90.8726 5.32397 90.7202 5.00757C90.5679 4.68726 90.4917 4.30835 90.4917 3.87085C90.4917 3.24976 90.5737 2.79272 90.7378 2.49976C90.9019 2.20288 91.1792 1.97437 91.5698 1.81421C91.9644 1.65405 92.4214 1.57397 92.9409 1.57397C93.4565 1.57397 93.894 1.64038 94.2534 1.77319C94.6167 1.9021 94.894 2.07397 95.0854 2.28882C95.2808 2.50366 95.3979 2.70288 95.437 2.88647C95.48 3.07007 95.5015 3.35718 95.5015 3.7478V4.19897Z" fill="#D37D74"/>
</g>
<defs>
<clipPath id="clip0_1042_144">
<rect width="96" height="10" fill="white"/>
</clipPath>
</defs>
</svg>
