<svg viewBox="0 0 24 24" fill="none" xmlns="http://www.w3.org/2000/svg">
  <path fill-rule="evenodd" clip-rule="evenodd"
    d="M20.3392 18L13.329 4.61247C13.07 4.11833 12.5583 3.80872 12.0004 3.80872C11.4425 3.80872 10.9307 4.11833 10.6717 4.61247L3.66075 18C3.41717 18.465 3.43442 19.0235 3.70621 19.4726C3.97801 19.9217 4.4648 20.1961 4.98975 20.196H19.0102C19.5352 20.1961 20.022 19.9217 20.2938 19.4726C20.5656 19.0235 20.5828 18.465 20.3392 18ZM11.25 9.31725C11.25 8.90304 11.5858 8.56725 12 8.56725C12.4142 8.56725 12.75 8.90304 12.75 9.31725V13.8173C12.75 14.2315 12.4142 14.5673 12 14.5673C11.5858 14.5673 11.25 14.2315 11.25 13.8173V9.31725ZM12.0165 17.9497H12.0375C12.3353 17.9449 12.6186 17.8202 12.8233 17.6038C13.028 17.3874 13.1368 17.0976 13.125 16.8C13.1009 16.186 12.5965 15.7005 11.982 15.6997H11.961C11.6639 15.7052 11.3815 15.8298 11.1772 16.0456C10.973 16.2614 10.8641 16.5503 10.875 16.8472C10.8983 17.4614 11.4019 17.9478 12.0165 17.9497Z"
    fill="currentColor" />
</svg>