<svg  viewBox="0 0 18 24" fill="none" xmlns="http://www.w3.org/2000/svg">
<g clip-path="url(#clip0_1042_151)">
<path d="M17.8841 0C17.9227 8 17.9614 16 18 24H12.3478V19.1961H6.23188V24H0V0H17.8841ZM6.08696 3.5098H3.22705V6.41176H6.08696V3.5098ZM6.08696 7.96078H3.22705V10.8627H6.08696V7.96078ZM6.08696 12.9314H3.22705V15.8333H6.08696V12.9314ZM10.4251 3.5098H7.56522V6.41176H10.4251V3.5098ZM10.4251 7.96078H7.56522V10.8627H10.4251V7.96078ZM10.4251 12.9314H7.56522V15.8333H10.4251V12.9314ZM14.8116 3.5098H11.9517V6.41176H14.8116V3.5098ZM14.8116 7.96078H11.9517V10.8627H14.8116V7.96078ZM14.8116 12.9314H11.9517V15.8333H14.8116V12.9314Z" fill="#7F8998"/>
</g>
<defs>
<clipPath id="clip0_1042_151">
<rect width="18" height="24" fill="white"/>
</clipPath>
</defs>
</svg>
