<svg viewBox="0 0 25 22" fill="none" xmlns="http://www.w3.org/2000/svg">
<g clip-path="url(#clip0_1042_76)">
<path d="M24.7557 2.07962V19.9204C24.7557 20.9453 23.9101 21.7513 22.8812 21.7513H2.11919C1.09025 21.7513 0.254883 20.9453 0.254883 19.9204V2.07962C0.26507 1.07465 1.09025 0.248779 2.11919 0.248779H22.8812C23.9101 0.248779 24.7557 1.07465 24.7557 2.07962ZM21.5874 18.0896V7.55226C21.5874 7.1443 21.2512 6.83584 20.8539 6.83584H4.14649C3.74918 6.83584 3.42318 7.15425 3.42318 7.55226V18.0896C3.42318 18.4776 3.74918 18.796 4.14649 18.796H20.8539C21.2512 18.796 21.5874 18.4776 21.5874 18.0896Z" fill="#7F8998"/>
<path d="M11.7156 15.4329H10.0346C9.86584 15.4329 9.729 15.5665 9.729 15.7314V17.0647C9.729 17.2296 9.86584 17.3632 10.0346 17.3632H11.7156C11.8843 17.3632 12.0212 17.2296 12.0212 17.0647V15.7314C12.0212 15.5665 11.8843 15.4329 11.7156 15.4329Z" fill="#7F8998"/>
<path d="M11.7156 11.9402H10.0346C9.86584 11.9402 9.729 12.0738 9.729 12.2387V13.572C9.729 13.7369 9.86584 13.8705 10.0346 13.8705H11.7156C11.8843 13.8705 12.0212 13.7369 12.0212 13.572V12.2387C12.0212 12.0738 11.8843 11.9402 11.7156 11.9402Z" fill="#7F8998"/>
<path d="M11.7156 8.44775H10.0346C9.86584 8.44775 9.729 8.5814 9.729 8.74626V10.0796C9.729 10.2445 9.86584 10.3781 10.0346 10.3781H11.7156C11.8843 10.3781 12.0212 10.2445 12.0212 10.0796V8.74626C12.0212 8.5814 11.8843 8.44775 11.7156 8.44775Z" fill="#7F8998"/>
<path d="M15.1692 15.4329H13.4882C13.3194 15.4329 13.1826 15.5665 13.1826 15.7314V17.0647C13.1826 17.2296 13.3194 17.3632 13.4882 17.3632H15.1692C15.338 17.3632 15.4748 17.2296 15.4748 17.0647V15.7314C15.4748 15.5665 15.338 15.4329 15.1692 15.4329Z" fill="#7F8998"/>
<path d="M15.1692 11.9402H13.4882C13.3194 11.9402 13.1826 12.0738 13.1826 12.2387V13.572C13.1826 13.7369 13.3194 13.8705 13.4882 13.8705H15.1692C15.338 13.8705 15.4748 13.7369 15.4748 13.572V12.2387C15.4748 12.0738 15.338 11.9402 15.1692 11.9402Z" fill="#7F8998"/>
<path d="M15.1692 8.44775H13.4882C13.3194 8.44775 13.1826 8.5814 13.1826 8.74626V10.0796C13.1826 10.2445 13.3194 10.3781 13.4882 10.3781H15.1692C15.338 10.3781 15.4748 10.2445 15.4748 10.0796V8.74626C15.4748 8.5814 15.338 8.44775 15.1692 8.44775Z" fill="#7F8998"/>
<path d="M19.1321 11.8508H17.4511C17.2823 11.8508 17.1455 11.9845 17.1455 12.1493V13.4827C17.1455 13.6475 17.2823 13.7812 17.4511 13.7812H19.1321C19.3009 13.7812 19.4377 13.6475 19.4377 13.4827V12.1493C19.4377 11.9845 19.3009 11.8508 19.1321 11.8508Z" fill="#7F8998"/>
<path d="M19.1321 8.35815H17.4511C17.2823 8.35815 17.1455 8.4918 17.1455 8.65666V9.99C17.1455 10.1549 17.2823 10.2885 17.4511 10.2885H19.1321C19.3009 10.2885 19.4377 10.1549 19.4377 9.99V8.65666C19.4377 8.4918 19.3009 8.35815 19.1321 8.35815Z" fill="#7F8998"/>
<path d="M7.78343 15.4329H6.1025C5.93371 15.4329 5.79688 15.5665 5.79688 15.7314V17.0647C5.79688 17.2296 5.93371 17.3632 6.1025 17.3632H7.78343C7.95222 17.3632 8.08905 17.2296 8.08905 17.0647V15.7314C8.08905 15.5665 7.95222 15.4329 7.78343 15.4329Z" fill="#7F8998"/>
<path d="M7.78343 11.9402H6.1025C5.93371 11.9402 5.79688 12.0738 5.79688 12.2387V13.572C5.79688 13.7369 5.93371 13.8705 6.1025 13.8705H7.78343C7.95222 13.8705 8.08905 13.7369 8.08905 13.572V12.2387C8.08905 12.0738 7.95222 11.9402 7.78343 11.9402Z" fill="#7F8998"/>
</g>
<defs>
<clipPath id="clip0_1042_76">
<rect width="25" height="22" fill="white"/>
</clipPath>
</defs>
</svg>
