<svg width="21" height="18" viewBox="0 0 21 18" fill="none" xmlns="http://www.w3.org/2000/svg">
<path d="M0 5.51844C3.39467 7.28614 6.78031 9.05384 10.175 10.8305C12.8564 9.18843 15.5378 7.53739 18.2193 5.89531C18.2283 8.54237 18.2463 11.1805 18.2554 13.8275C19.1672 13.343 20.0881 12.8584 21 12.3829V5.47358L10.175 0C6.78031 1.83948 3.39467 3.67896 0 5.51844Z" fill="#323947"/>
<path d="M3.71972 9C3.71972 10.9651 3.71069 12.9302 3.70166 14.8953C5.85944 15.9272 8.01722 16.9681 10.166 18C12.1071 16.9681 14.0482 15.9272 15.9803 14.8953V9L10.166 12.3739C8.01722 11.2522 5.86847 10.1216 3.71069 9H3.71972Z" fill="#323947"/>
</svg>
