<svg viewBox="0 0 24 24" fill="none" xmlns="http://www.w3.org/2000/svg">
<path
    d="M4.43086 19.5693C4.61718 19.7555 4.83843 19.8836 5.09461 19.9534C5.35856 20.0155 5.61863 20.0155 5.87482 19.9534C6.13877 19.8836 6.3639 19.7594 6.55022 19.5809L12 14.1215L17.4614 19.5693C17.6477 19.7633 17.8651 19.8914 18.1135 19.9534C18.3697 20.0155 18.6259 20.0155 18.8821 19.9534C19.146 19.8836 19.3712 19.7517 19.5575 19.5577C19.7593 19.3714 19.8913 19.1502 19.9534 18.8941C20.0155 18.6303 20.0155 18.3703 19.9534 18.1142C19.8913 17.8581 19.7632 17.637 19.5691 17.4507L14.131 11.9913L19.5691 6.54347C19.7632 6.35722 19.8913 6.13605 19.9534 5.87996C20.0155 5.62386 20.0155 5.36777 19.9534 5.11168C19.8913 4.84782 19.7593 4.62277 19.5575 4.43652C19.3712 4.24251 19.146 4.11447 18.8821 4.05238C18.6259 3.98254 18.3697 3.98254 18.1135 4.05238C17.8651 4.11447 17.6477 4.23863 17.4614 4.42488L12 9.87268L6.55022 4.41324C6.3639 4.23475 6.13877 4.11447 5.87482 4.05238C5.61863 3.98254 5.35856 3.98254 5.09461 4.05238C4.83843 4.11447 4.61718 4.23863 4.43086 4.42488C4.23678 4.61889 4.10869 4.84782 4.04658 5.11168C3.98447 5.36777 3.98447 5.62386 4.04658 5.87996C4.10869 6.13605 4.2329 6.35722 4.41921 6.54347L9.88064 11.9913L4.41921 17.4507C4.2329 17.637 4.10869 17.8581 4.04658 18.1142C3.98447 18.3703 3.98447 18.6303 4.04658 18.8941C4.10869 19.1502 4.23678 19.3753 4.43086 19.5693Z"
    fill="currentColor" />
</svg>