<svg viewBox="0 0 20 20" fill="none" xmlns="http://www.w3.org/2000/svg">
<g clip-path="url(#clip0_7_39)">
<path d="M4.80365 9.0144C3.99808 9.84482 3.19251 10.6752 2.38694 11.5056C2.03886 11.8658 1.33274 12.7063 1.08411 13.9769C0.984655 14.4871 0.686296 16.4881 2.06869 17.8888C3.34169 19.1895 5.13185 19.0194 5.68878 18.9694C7.78724 18.7793 9.06024 17.3586 9.36854 17.0084C9.92548 16.3981 10.4824 15.7878 11.0394 15.1775" stroke="#7F8998" stroke-width="2" stroke-miterlimit="10" stroke-linecap="round"/>
<path d="M8.85132 5.06254C9.50771 4.3822 10.1641 3.69185 10.8105 3.01151C10.9796 2.7814 12.3023 1.06054 14.54 1.00051C14.9279 1.00051 16.4893 0.980498 17.7325 2.20111C18.8861 3.33167 18.9955 4.76239 19.0055 5.22262C19.0552 7.14358 17.8319 8.3842 17.6231 8.59431C16.8175 9.43473 16.002 10.2751 15.1964 11.1156" stroke="#7F8998" stroke-width="2" stroke-miterlimit="10" stroke-linecap="round"/>
<path d="M7.36938 12.5362L12.6006 7.5437" stroke="#7F8998" stroke-width="2" stroke-miterlimit="10" stroke-linecap="round"/>
</g>
<defs>
<clipPath id="clip0_7_39">
<rect width="20" height="20" fill="white"/>
</clipPath>
</defs>
</svg>
