<svg width="24" height="25" viewBox="0 0 24 25" fill="none" xmlns="http://www.w3.org/2000/svg">
<g clip-path="url(#clip0_1042_88)">
<path d="M19.6282 1.76047H23.7553C23.7358 2.66527 23.5793 5.46818 21.5157 8.08424C19.7064 10.3757 17.457 11.2314 16.5573 11.5264C16.2639 11.969 15.8922 12.4607 15.4326 12.9623C14.9925 13.4442 14.5524 13.8474 14.1514 14.172C14.0341 14.5949 13.9363 15.1161 13.8971 15.7062C13.8385 16.6012 13.9265 17.3584 14.0438 17.9288H16.6257L17.5646 24.7443H11.7847C11.7944 16.5716 11.814 8.40878 11.8238 0.236084H19.6086V1.75064L19.6282 1.76047ZM21.8971 3.13734H19.4521C19.3935 3.72743 19.3152 4.34702 19.1881 5.00595C18.8751 6.63852 18.4057 8.05473 17.9167 9.21523C18.6013 8.84151 20.2248 7.82853 21.193 5.80257C21.6918 4.76008 21.8482 3.80611 21.8971 3.13734ZM17.3886 2.62593L15.4717 2.59643L15.413 8.61531C15.5988 8.37928 15.7749 8.12357 15.9411 7.8482C17.0952 5.97959 17.3592 4.03231 17.3886 2.62593Z" fill="#7F8998"/>
<path d="M4.37177 1.76047H0.244629C0.264189 2.66527 0.420668 5.46818 2.48424 8.08424C4.29353 10.3757 6.54292 11.2314 7.44267 11.5264C7.73607 11.969 8.10771 12.4607 8.56737 12.9623C9.00746 13.4442 9.44756 13.8474 9.84854 14.172C9.9659 14.5949 10.0637 15.1161 10.1028 15.7062C10.1615 16.6012 10.0735 17.3584 9.95612 17.9288H7.37421L6.43534 24.7443H12.2153C12.2055 16.5716 12.1859 8.40878 12.1762 0.236084H4.39133V1.75064L4.37177 1.76047ZM2.10282 3.13734H4.54781C4.60649 3.72743 4.68473 4.34702 4.81187 5.00595C5.12482 6.63852 5.59426 8.05473 6.08326 9.21523C5.39866 8.84151 3.77519 7.82853 2.80698 5.80257C2.3082 4.76008 2.15172 3.80611 2.10282 3.13734Z" fill="#7F8998"/>
</g>
<defs>
<clipPath id="clip0_1042_88">
<rect width="24" height="25" fill="white"/>
</clipPath>
</defs>
</svg>
