<svg width="104" height="82" viewBox="0 0 104 82" fill="none" xmlns="http://www.w3.org/2000/svg">
<g clip-path="url(#clip0_1038_40)">
<path d="M13.4552 41.7665C12.1486 35.2253 10.7023 30.0181 9.57527 26.3542C8.06918 21.4756 6.74263 18.0606 4.81762 17.9511C4.02967 17.9113 3.41127 18.439 3.06218 18.7476C0.758163 20.7787 1.61594 24.0842 1.88524 34.3591C1.98498 38.0031 1.92513 39.6658 2.21438 43.2003C2.49366 46.5555 2.63329 48.2381 2.93252 49.2238C4.02967 52.7782 6.2539 54.3115 12.2284 59.8372C16.3078 63.6106 18.3525 65.4924 19.5394 66.9062C21.7636 69.5645 24.5464 73.8358 26.2919 80.4965H41.4026C40.6646 76.4343 39.6672 72.0038 38.3007 67.2945C36.7846 62.0376 35.0591 57.3183 33.3236 53.1466C30.8899 51.4242 28.955 49.9705 27.6184 48.945C24.3469 46.436 22.7211 45.1716 22.1426 44.6937C21.6439 44.2755 20.4969 43.3098 18.8213 42.2046C17.0758 41.0597 16.1881 40.4921 15.3303 40.6017C13.6248 40.8207 12.0688 43.0907 12.1187 45.1318C12.1586 46.5456 12.9565 47.4416 15.8789 50.4883C18.0333 52.7384 19.8785 54.6201 21.245 56.014" stroke="#404566" stroke-width="3" stroke-linecap="round" stroke-linejoin="round"/>
<path d="M90.5451 41.7665C91.8517 35.2253 93.298 30.0181 94.425 26.3542C95.9311 21.4756 97.2577 18.0606 99.1827 17.9511C99.9706 17.9113 100.589 18.439 100.938 18.7476C103.242 20.7787 102.384 24.0842 102.115 34.3591C102.015 38.0031 102.075 39.6658 101.786 43.2003C101.507 46.5555 101.367 48.2381 101.068 49.2238C99.9706 52.7782 97.7464 54.3115 91.7719 59.8372C87.6925 63.6106 85.6478 65.4924 84.4609 66.9062C82.2367 69.5645 79.4539 73.8358 77.7084 80.4965H62.5977C63.3357 76.4343 64.3332 72.0038 65.6996 67.2945C67.2157 62.0376 68.9412 57.3183 70.6767 53.1466C73.1104 51.4242 75.0453 49.9705 76.3819 48.945C79.6534 46.436 81.2792 45.1716 81.8577 44.6937C82.3564 44.2755 83.5034 43.3098 85.179 42.2046C86.9245 41.0597 87.8122 40.4921 88.67 40.6017C90.3755 40.8207 91.9315 43.0907 91.8816 45.1318C91.8417 46.5456 91.0438 47.4416 88.1214 50.4883C85.967 52.7384 84.1218 54.6201 82.7553 56.014" stroke="#404566" stroke-width="3" stroke-linecap="round" stroke-linejoin="round"/>
<path d="M53.0821 45.5302C52.1346 44.2657 50.5188 42.3541 48.105 40.562C43.3773 37.0474 40.5447 37.6846 35.8169 34.9267C30.0818 31.5715 27.2791 26.5635 26.5211 25.1497C24.7457 21.8641 22.1524 17.0851 23.868 11.5593C25.384 6.65088 29.8125 2.71814 34.8295 1.78225C41.8712 0.468019 49.671 5.12756 52.5934 13.3017" stroke="#404566" stroke-width="3" stroke-linecap="round" stroke-linejoin="round"/>
<path d="M53.0824 45.5301C54.03 44.2656 55.6458 42.354 58.0595 40.5619C62.7872 37.0473 65.6199 37.6845 70.3476 34.9266C76.0827 31.5713 78.8854 26.5633 79.6435 25.1495C81.4188 21.864 84.0121 17.0849 82.2966 11.5592C80.7406 6.51135 76.1425 2.76779 71.335 1.78212C64.1537 0.308585 56.0347 4.90839 52.5737 13.3015" stroke="#404566" stroke-width="3" stroke-linecap="round" stroke-linejoin="round"/>
</g>
<defs>
<clipPath id="clip0_1038_40">
<rect width="104" height="82" fill="white"/>
</clipPath>
</defs>
</svg>
