<svg width="18" height="25" viewBox="0 0 18 25" fill="none" xmlns="http://www.w3.org/2000/svg">
<g clip-path="url(#clip0_1042_73)">
<path d="M17.4905 17.5283C14.6586 19.8513 11.8267 22.1743 8.99478 24.4973C6.16286 22.1743 3.33094 19.8513 0.499023 17.5283V0.50293H17.4803V17.5283H17.4905Z" stroke="#7F8998" stroke-linecap="round" stroke-linejoin="round"/>
<path d="M17.4905 0.50293V17.5383C14.6586 19.8613 11.8267 22.1743 8.99478 24.5074C6.16286 22.1743 3.34113 19.8613 0.499023 17.5383V0.50293H17.4803H17.4905ZM12.1119 7.79376C12.1119 6.09424 10.7163 4.72658 8.99478 4.72658C7.27322 4.72658 5.88782 6.09424 5.88782 7.79376C5.88782 9.49328 7.27322 10.871 8.99478 10.871C10.7163 10.871 12.1119 9.49328 12.1119 7.79376Z" fill="#7F8998"/>
</g>
<defs>
<clipPath id="clip0_1042_73">
<rect width="18" height="25" fill="white"/>
</clipPath>
</defs>
</svg>
