<svg width="67" height="82" viewBox="0 0 67 82" fill="none" xmlns="http://www.w3.org/2000/svg">
<g clip-path="url(#clip0_1042_64)">
<path d="M1.62813 80.6504C1.42348 79.4988 -0.0802411 70.2497 6.53078 62.6292C13.4621 54.6397 23.3208 55.3325 24.353 55.4224C25.1716 56.799 26.5685 58.7694 28.8107 60.6048C30.6259 62.0893 32.3876 62.989 33.7134 63.5379" stroke="#3F4464" stroke-width="3" stroke-linecap="round" stroke-linejoin="round"/>
<path d="M17.2169 27.7112C16.861 29.6366 16.4606 33.3704 17.8842 37.626C18.4715 39.3805 20.0286 43.8071 24.5665 46.8661C28.2768 49.3673 32.0228 49.6282 33.7044 49.6462" stroke="#3F4464" stroke-width="3" stroke-linecap="round" stroke-linejoin="round"/>
<path d="M17.5908 24.4002C20.8207 22.9877 26.6932 20.9183 34.2652 21.0443C41.1342 21.1613 46.4907 23.0327 49.6138 24.4002" stroke="#3F4464" stroke-width="3" stroke-linecap="round" stroke-linejoin="round"/>
<path d="M17.5908 15.61C20.7228 14.2335 26.3373 12.2361 33.5979 12.2361C40.8673 12.2361 46.4907 14.2335 49.6138 15.61" stroke="#3F4464" stroke-width="3" stroke-linecap="round" stroke-linejoin="round"/>
<path d="M17.5906 24.4003V15.6011C13.3553 13.8016 9.11998 12.0022 4.89355 10.2028C14.4942 7.2517 24.1038 4.29164 33.7044 1.34058" stroke="#3F4464" stroke-width="3" stroke-linecap="round" stroke-linejoin="round"/>
<path d="M65.3806 80.6504C65.5852 79.4988 67.0711 70.2497 60.5402 62.6292C53.6978 54.6397 43.9637 55.3325 42.9404 55.4224C42.1307 56.799 40.7516 58.7694 38.545 60.6048C36.7565 62.0893 35.0126 62.989 33.7046 63.5379" stroke="#3F4464" stroke-width="3" stroke-linecap="round" stroke-linejoin="round"/>
<path d="M49.9875 27.7112C50.3345 29.6366 50.7349 33.3704 49.329 37.626C48.7507 39.3805 47.2114 43.8071 42.7269 46.8661C39.061 49.3673 35.3596 49.6282 33.7046 49.6462" stroke="#3F4464" stroke-width="3" stroke-linecap="round" stroke-linejoin="round"/>
<path d="M49.6138 24.4003V15.6011C53.7957 13.8016 57.9687 12.0022 62.1507 10.2028C52.6657 7.2517 43.1896 4.29164 33.7046 1.34058" stroke="#3F4464" stroke-width="3" stroke-linecap="round" stroke-linejoin="round"/>
</g>
<defs>
<clipPath id="clip0_1042_64">
<rect width="67" height="82" fill="white"/>
</clipPath>
</defs>
</svg>
