<svg width="56" height="10" viewBox="0 0 56 10" fill="none" xmlns="http://www.w3.org/2000/svg">
<g clip-path="url(#clip0_1042_157)">
<path d="M9.77344 0.00366211L8.67773 9.48999H5.5957C5.31445 8.03296 5.06641 6.37671 4.85156 4.52124C4.75391 5.31421 4.52539 6.97046 4.16602 9.48999H1.10156L0 0.00366211H2.39648L2.64844 3.31421L2.90625 6.50757C2.99609 4.85522 3.22266 2.68726 3.58594 0.00366211H6.15234C6.1875 0.281006 6.27734 1.32397 6.42188 3.13257L6.69141 6.73608C6.82812 4.44312 7.05664 2.19897 7.37695 0.00366211H9.77344ZM15.5566 5.73999H12.4922V7.42163C12.4922 7.77319 12.5176 7.99976 12.5684 8.10132C12.6191 8.20288 12.7168 8.25366 12.8613 8.25366C13.041 8.25366 13.1602 8.18726 13.2188 8.05444C13.2812 7.91772 13.3125 7.65601 13.3125 7.26929V6.2439H15.5566V6.81812C15.5566 7.29858 15.5254 7.66772 15.4629 7.92554C15.4043 8.18335 15.2637 8.45874 15.041 8.75171C14.8184 9.04468 14.5352 9.26538 14.1914 9.41382C13.8516 9.55835 13.4238 9.63062 12.9082 9.63062C12.4082 9.63062 11.9668 9.55835 11.584 9.41382C11.2012 9.26929 10.9023 9.07202 10.6875 8.82202C10.4766 8.56812 10.3301 8.29077 10.248 7.98999C10.166 7.6853 10.125 7.2439 10.125 6.66577V4.39819C10.125 3.71851 10.2168 3.18335 10.4004 2.79272C10.584 2.39819 10.8848 2.09741 11.3027 1.89038C11.7207 1.67944 12.2012 1.57397 12.7441 1.57397C13.4082 1.57397 13.9551 1.70093 14.3848 1.95483C14.8184 2.20483 15.1211 2.53882 15.293 2.95679C15.4688 3.37085 15.5566 3.95483 15.5566 4.70874V5.73999ZM13.1836 4.47437V3.90601C13.1836 3.50366 13.1621 3.2439 13.1191 3.12671C13.0762 3.00952 12.9883 2.95093 12.8555 2.95093C12.6914 2.95093 12.5898 3.00171 12.5508 3.10327C12.5117 3.20093 12.4922 3.46851 12.4922 3.90601V4.47437H13.1836ZM18.7031 0.00366211V2.2478C18.8984 2.02124 19.1152 1.85327 19.3535 1.7439C19.5957 1.63062 19.8574 1.57397 20.1387 1.57397C20.4629 1.57397 20.7441 1.62476 20.9824 1.72632C21.2207 1.82788 21.4023 1.97046 21.5273 2.15405C21.6523 2.33765 21.7266 2.51733 21.75 2.69312C21.7773 2.8689 21.791 3.2439 21.791 3.81812V7.32202C21.791 7.89233 21.752 8.31812 21.6738 8.59937C21.5996 8.87671 21.4219 9.1189 21.1406 9.32593C20.8594 9.52905 20.5254 9.63062 20.1387 9.63062C19.8613 9.63062 19.6016 9.57007 19.3594 9.44897C19.1211 9.32788 18.9023 9.14624 18.7031 8.90405L18.5508 9.48999H16.3359V0.00366211H18.7031ZM19.4238 3.92358C19.4238 3.52124 19.3984 3.25952 19.3477 3.13843C19.2969 3.01343 19.1973 2.95093 19.0488 2.95093C18.9043 2.95093 18.8105 3.00562 18.7676 3.11499C18.7246 3.22046 18.7031 3.48999 18.7031 3.92358V7.27515C18.7031 7.69312 18.7266 7.96069 18.7734 8.07788C18.8242 8.19507 18.9219 8.25366 19.0664 8.25366C19.2148 8.25366 19.3105 8.19312 19.3535 8.07202C19.4004 7.95093 19.4238 7.65991 19.4238 7.19897V3.92358ZM34.043 0.00366211L32.9473 9.48999H29.8652C29.584 8.03296 29.3359 6.37671 29.1211 4.52124C29.0234 5.31421 28.7949 6.97046 28.4355 9.48999H25.3711L24.2695 0.00366211H26.666L26.918 3.31421L27.1758 6.50757C27.2656 4.85522 27.4922 2.68726 27.8555 0.00366211H30.4219C30.457 0.281006 30.5469 1.32397 30.6914 3.13257L30.9609 6.73608C31.0977 4.44312 31.3262 2.19897 31.6465 0.00366211H34.043ZM39.8203 4.44507V6.34937C39.8203 7.04858 39.7852 7.56226 39.7148 7.89038C39.6445 8.2146 39.4941 8.51929 39.2637 8.80444C39.0332 9.08569 38.7363 9.29468 38.373 9.4314C38.0137 9.56421 37.5996 9.63062 37.1309 9.63062C36.6074 9.63062 36.1641 9.57397 35.8008 9.46069C35.4375 9.34351 35.1543 9.16968 34.9512 8.93921C34.752 8.70483 34.6094 8.42358 34.5234 8.09546C34.4375 7.76343 34.3945 7.26733 34.3945 6.60718V4.61499C34.3945 3.89233 34.4727 3.32788 34.6289 2.92163C34.7852 2.51538 35.0664 2.18921 35.4727 1.94312C35.8789 1.69702 36.3984 1.57397 37.0312 1.57397C37.5625 1.57397 38.0176 1.65405 38.3965 1.81421C38.7793 1.97046 39.0742 2.17554 39.2812 2.42944C39.4883 2.68335 39.6289 2.94507 39.7031 3.2146C39.7812 3.48413 39.8203 3.89429 39.8203 4.44507ZM37.4531 3.85913C37.4531 3.46069 37.4316 3.21069 37.3887 3.10913C37.3457 3.00366 37.2539 2.95093 37.1133 2.95093C36.9727 2.95093 36.8789 3.00366 36.832 3.10913C36.7852 3.21069 36.7617 3.46069 36.7617 3.85913V7.3689C36.7617 7.73608 36.7852 7.97632 36.832 8.0896C36.8789 8.19897 36.9707 8.25366 37.1074 8.25366C37.248 8.25366 37.3398 8.20288 37.3828 8.10132C37.4297 7.99976 37.4531 7.78101 37.4531 7.44507V3.85913ZM42.9727 1.7146L42.8789 2.73413C43.2227 2.00366 43.7207 1.61694 44.373 1.57397V4.3103C43.9395 4.3103 43.6211 4.3689 43.418 4.48608C43.2148 4.60327 43.0898 4.76733 43.043 4.97827C42.9961 5.1853 42.9727 5.66577 42.9727 6.41968V9.48999H40.6055V1.7146H42.9727ZM50.0039 1.7146L49.043 4.81421L50.291 9.48999H48.0117L47.2734 6.10327V9.48999H44.9062V0.00366211H47.2734V3.98804L48.0117 1.7146H50.0039ZM55.4824 4.19897H53.3848V3.7771C53.3848 3.41772 53.3633 3.19116 53.3203 3.09741C53.2812 2.99976 53.1797 2.95093 53.0156 2.95093C52.8828 2.95093 52.7832 2.99585 52.7168 3.08569C52.6504 3.17163 52.6172 3.30249 52.6172 3.47827C52.6172 3.71655 52.6328 3.89233 52.6641 4.00562C52.6992 4.11499 52.7988 4.23608 52.9629 4.3689C53.1309 4.50171 53.4727 4.69507 53.9883 4.94897C54.6758 5.28491 55.127 5.60132 55.3418 5.89819C55.5566 6.19507 55.6641 6.62671 55.6641 7.19312C55.6641 7.82593 55.582 8.30444 55.418 8.62866C55.2539 8.94897 54.9785 9.19702 54.5918 9.3728C54.209 9.54468 53.7461 9.63062 53.2031 9.63062C52.6016 9.63062 52.0859 9.53687 51.6562 9.34937C51.2305 9.16187 50.9375 8.90796 50.7773 8.58765C50.6172 8.26733 50.5371 7.78296 50.5371 7.13452V6.75952H52.6348V7.25171C52.6348 7.66968 52.6602 7.94116 52.7109 8.06616C52.7656 8.19116 52.8711 8.25366 53.0273 8.25366C53.1953 8.25366 53.3125 8.21265 53.3789 8.13062C53.4453 8.04468 53.4785 7.86694 53.4785 7.59741C53.4785 7.22632 53.4355 6.9939 53.3496 6.90015C53.2598 6.8064 52.8008 6.52905 51.9727 6.06812C51.2773 5.67749 50.8535 5.32397 50.7012 5.00757C50.5488 4.68726 50.4727 4.30835 50.4727 3.87085C50.4727 3.24976 50.5547 2.79272 50.7188 2.49976C50.8828 2.20288 51.1602 1.97437 51.5508 1.81421C51.9453 1.65405 52.4023 1.57397 52.9219 1.57397C53.4375 1.57397 53.875 1.64038 54.2344 1.77319C54.5977 1.9021 54.875 2.07397 55.0664 2.28882C55.2617 2.50366 55.3789 2.70288 55.418 2.88647C55.4609 3.07007 55.4824 3.35718 55.4824 3.7478V4.19897Z" fill="#D37D74"/>
</g>
<defs>
<clipPath id="clip0_1042_157">
<rect width="56" height="10" fill="white"/>
</clipPath>
</defs>
</svg>
