<svg width="110" height="10" viewBox="0 0 110 10" fill="none" xmlns="http://www.w3.org/2000/svg">
<g clip-path="url(#clip0_1042_103)">
<path d="M6.25195 4.50049H3.78516V2.84814C3.78516 2.36768 3.75781 2.06885 3.70312 1.95166C3.65234 1.83057 3.53711 1.77002 3.35742 1.77002C3.1543 1.77002 3.02539 1.84229 2.9707 1.98682C2.91602 2.13135 2.88867 2.44385 2.88867 2.92432V7.33057C2.88867 7.7915 2.91602 8.09229 2.9707 8.23291C3.02539 8.37354 3.14844 8.44385 3.33984 8.44385C3.52344 8.44385 3.64258 8.37354 3.69727 8.23291C3.75586 8.09229 3.78516 7.76221 3.78516 7.24268V6.05322H6.25195V6.42236C6.25195 7.40283 6.18164 8.09814 6.04102 8.5083C5.9043 8.91846 5.59766 9.27783 5.12109 9.58643C4.64844 9.89502 4.06445 10.0493 3.36914 10.0493C2.64648 10.0493 2.05078 9.91846 1.58203 9.65674C1.11328 9.39502 0.802734 9.03369 0.650391 8.57275C0.498047 8.10791 0.421875 7.41064 0.421875 6.48096V3.70947C0.421875 3.02588 0.445312 2.51416 0.492188 2.17432C0.539062 1.83057 0.677734 1.50049 0.908203 1.18408C1.14258 0.867676 1.46484 0.619629 1.875 0.439941C2.28906 0.256348 2.76367 0.164551 3.29883 0.164551C4.02539 0.164551 4.625 0.305176 5.09766 0.586426C5.57031 0.867676 5.88086 1.21924 6.0293 1.64111C6.17773 2.05908 6.25195 2.71143 6.25195 3.59814V4.50049ZM9.43359 2.07471L9.33984 3.09424C9.68359 2.36377 10.1816 1.97705 10.834 1.93408V4.67041C10.4004 4.67041 10.082 4.729 9.87891 4.84619C9.67578 4.96338 9.55078 5.12744 9.50391 5.33838C9.45703 5.54541 9.43359 6.02588 9.43359 6.77979V9.8501H7.06641V2.07471H9.43359ZM16.7285 6.1001H13.6641V7.78174C13.6641 8.1333 13.6895 8.35986 13.7402 8.46143C13.791 8.56299 13.8887 8.61377 14.0332 8.61377C14.2129 8.61377 14.332 8.54736 14.3906 8.41455C14.4531 8.27783 14.4844 8.01611 14.4844 7.62939V6.604H16.7285V7.17822C16.7285 7.65869 16.6973 8.02783 16.6348 8.28564C16.5762 8.54346 16.4355 8.81885 16.2129 9.11182C15.9902 9.40479 15.707 9.62549 15.3633 9.77393C15.0234 9.91846 14.5957 9.99072 14.0801 9.99072C13.5801 9.99072 13.1387 9.91846 12.7559 9.77393C12.373 9.62939 12.0742 9.43213 11.8594 9.18213C11.6484 8.92822 11.502 8.65088 11.4199 8.3501C11.3379 8.04541 11.2969 7.604 11.2969 7.02588V4.7583C11.2969 4.07861 11.3887 3.54346 11.5723 3.15283C11.7559 2.7583 12.0566 2.45752 12.4746 2.25049C12.8926 2.03955 13.373 1.93408 13.916 1.93408C14.5801 1.93408 15.127 2.06104 15.5566 2.31494C15.9902 2.56494 16.293 2.89893 16.4648 3.31689C16.6406 3.73096 16.7285 4.31494 16.7285 5.06885V6.1001ZM14.3555 4.83447V4.26611C14.3555 3.86377 14.334 3.604 14.291 3.48682C14.248 3.36963 14.1602 3.31104 14.0273 3.31104C13.8633 3.31104 13.7617 3.36182 13.7227 3.46338C13.6836 3.56104 13.6641 3.82861 13.6641 4.26611V4.83447H14.3555ZM19.623 5.08643H17.4023V4.56494C17.4023 3.96338 17.4707 3.50049 17.6074 3.17627C17.748 2.84814 18.0273 2.55908 18.4453 2.30908C18.8633 2.05908 19.4062 1.93408 20.0742 1.93408C20.875 1.93408 21.4785 2.07666 21.8848 2.36182C22.291 2.64307 22.5352 2.99072 22.6172 3.40479C22.6992 3.81494 22.7402 4.6626 22.7402 5.94775V9.8501H20.4375V9.15869C20.293 9.43604 20.1055 9.64502 19.875 9.78564C19.6484 9.92236 19.377 9.99072 19.0605 9.99072C18.6465 9.99072 18.2656 9.87549 17.918 9.64502C17.5742 9.41064 17.4023 8.90088 17.4023 8.11572V7.47705C17.4023 6.89502 17.4941 6.49854 17.6777 6.2876C17.8613 6.07666 18.3164 5.83057 19.043 5.54932C19.8203 5.24463 20.2363 5.03955 20.291 4.93408C20.3457 4.82861 20.373 4.61377 20.373 4.28955C20.373 3.8833 20.3418 3.61963 20.2793 3.49854C20.2207 3.37354 20.1211 3.31104 19.9805 3.31104C19.8203 3.31104 19.7207 3.36377 19.6816 3.46924C19.6426 3.5708 19.623 3.83838 19.623 4.27197V5.08643ZM20.373 6.15283C19.9941 6.43018 19.7734 6.6626 19.7109 6.8501C19.6523 7.0376 19.623 7.30713 19.623 7.65869C19.623 8.06104 19.6484 8.3208 19.6992 8.43799C19.7539 8.55518 19.8594 8.61377 20.0156 8.61377C20.1641 8.61377 20.2598 8.56885 20.3027 8.479C20.3496 8.38525 20.373 8.14307 20.373 7.75244V6.15283ZM26.0508 1.0376V2.26221H26.6895V3.49268H26.0508V7.65283C26.0508 8.16455 26.0762 8.44971 26.127 8.5083C26.1816 8.56689 26.4023 8.59619 26.7891 8.59619V9.8501H25.834C25.2949 9.8501 24.9102 9.82861 24.6797 9.78564C24.4492 9.73877 24.2461 9.63525 24.0703 9.4751C23.8945 9.31104 23.7852 9.12549 23.7422 8.91846C23.6992 8.70752 23.6777 8.21533 23.6777 7.44189V3.49268H23.168V2.26221H23.6777V1.0376H26.0508ZM32.5723 6.1001H29.5078V7.78174C29.5078 8.1333 29.5332 8.35986 29.584 8.46143C29.6348 8.56299 29.7324 8.61377 29.877 8.61377C30.0566 8.61377 30.1758 8.54736 30.2344 8.41455C30.2969 8.27783 30.3281 8.01611 30.3281 7.62939V6.604H32.5723V7.17822C32.5723 7.65869 32.541 8.02783 32.4785 8.28564C32.4199 8.54346 32.2793 8.81885 32.0566 9.11182C31.834 9.40479 31.5508 9.62549 31.207 9.77393C30.8672 9.91846 30.4395 9.99072 29.9238 9.99072C29.4238 9.99072 28.9824 9.91846 28.5996 9.77393C28.2168 9.62939 27.918 9.43213 27.7031 9.18213C27.4922 8.92822 27.3457 8.65088 27.2637 8.3501C27.1816 8.04541 27.1406 7.604 27.1406 7.02588V4.7583C27.1406 4.07861 27.2324 3.54346 27.416 3.15283C27.5996 2.7583 27.9004 2.45752 28.3184 2.25049C28.7363 2.03955 29.2168 1.93408 29.7598 1.93408C30.4238 1.93408 30.9707 2.06104 31.4004 2.31494C31.834 2.56494 32.1367 2.89893 32.3086 3.31689C32.4844 3.73096 32.5723 4.31494 32.5723 5.06885V6.1001ZM30.1992 4.83447V4.26611C30.1992 3.86377 30.1777 3.604 30.1348 3.48682C30.0918 3.36963 30.0039 3.31104 29.8711 3.31104C29.707 3.31104 29.6055 3.36182 29.5664 3.46338C29.5273 3.56104 29.5078 3.82861 29.5078 4.26611V4.83447H30.1992ZM37.5879 5.08643H35.3672V4.56494C35.3672 3.96338 35.4355 3.50049 35.5723 3.17627C35.7129 2.84814 35.9922 2.55908 36.4102 2.30908C36.8281 2.05908 37.3711 1.93408 38.0391 1.93408C38.8398 1.93408 39.4434 2.07666 39.8496 2.36182C40.2559 2.64307 40.5 2.99072 40.582 3.40479C40.6641 3.81494 40.7051 4.6626 40.7051 5.94775V9.8501H38.4023V9.15869C38.2578 9.43604 38.0703 9.64502 37.8398 9.78564C37.6133 9.92236 37.3418 9.99072 37.0254 9.99072C36.6113 9.99072 36.2305 9.87549 35.8828 9.64502C35.5391 9.41064 35.3672 8.90088 35.3672 8.11572V7.47705C35.3672 6.89502 35.459 6.49854 35.6426 6.2876C35.8262 6.07666 36.2812 5.83057 37.0078 5.54932C37.7852 5.24463 38.2012 5.03955 38.2559 4.93408C38.3105 4.82861 38.3379 4.61377 38.3379 4.28955C38.3379 3.8833 38.3066 3.61963 38.2441 3.49854C38.1855 3.37354 38.0859 3.31104 37.9453 3.31104C37.7852 3.31104 37.6855 3.36377 37.6465 3.46924C37.6074 3.5708 37.5879 3.83838 37.5879 4.27197V5.08643ZM38.3379 6.15283C37.959 6.43018 37.7383 6.6626 37.6758 6.8501C37.6172 7.0376 37.5879 7.30713 37.5879 7.65869C37.5879 8.06104 37.6133 8.3208 37.6641 8.43799C37.7188 8.55518 37.8242 8.61377 37.9805 8.61377C38.1289 8.61377 38.2246 8.56885 38.2676 8.479C38.3145 8.38525 38.3379 8.14307 38.3379 7.75244V6.15283ZM46.0488 2.07471L46.0078 2.78955C46.1797 2.50439 46.3887 2.2915 46.6348 2.15088C46.8848 2.00635 47.1719 1.93408 47.4961 1.93408C47.9023 1.93408 48.2344 2.02979 48.4922 2.22119C48.75 2.4126 48.916 2.65479 48.9902 2.94775C49.0645 3.23682 49.1016 3.72119 49.1016 4.40088V9.8501H46.7344V4.46533C46.7344 3.93018 46.7168 3.604 46.6816 3.48682C46.6465 3.36963 46.5488 3.31104 46.3887 3.31104C46.2207 3.31104 46.1152 3.37939 46.0723 3.51611C46.0293 3.64893 46.0078 4.0083 46.0078 4.59424V9.8501H43.6406V2.07471H46.0488ZM55.2832 6.1001H52.2188V7.78174C52.2188 8.1333 52.2441 8.35986 52.2949 8.46143C52.3457 8.56299 52.4434 8.61377 52.5879 8.61377C52.7676 8.61377 52.8867 8.54736 52.9453 8.41455C53.0078 8.27783 53.0391 8.01611 53.0391 7.62939V6.604H55.2832V7.17822C55.2832 7.65869 55.252 8.02783 55.1895 8.28564C55.1309 8.54346 54.9902 8.81885 54.7676 9.11182C54.5449 9.40479 54.2617 9.62549 53.918 9.77393C53.5781 9.91846 53.1504 9.99072 52.6348 9.99072C52.1348 9.99072 51.6934 9.91846 51.3105 9.77393C50.9277 9.62939 50.6289 9.43213 50.4141 9.18213C50.2031 8.92822 50.0566 8.65088 49.9746 8.3501C49.8926 8.04541 49.8516 7.604 49.8516 7.02588V4.7583C49.8516 4.07861 49.9434 3.54346 50.127 3.15283C50.3105 2.7583 50.6113 2.45752 51.0293 2.25049C51.4473 2.03955 51.9277 1.93408 52.4707 1.93408C53.1348 1.93408 53.6816 2.06104 54.1113 2.31494C54.5449 2.56494 54.8477 2.89893 55.0195 3.31689C55.1953 3.73096 55.2832 4.31494 55.2832 5.06885V6.1001ZM52.9102 4.83447V4.26611C52.9102 3.86377 52.8887 3.604 52.8457 3.48682C52.8027 3.36963 52.7148 3.31104 52.582 3.31104C52.418 3.31104 52.3164 3.36182 52.2773 3.46338C52.2383 3.56104 52.2188 3.82861 52.2188 4.26611V4.83447H52.9102ZM63.709 2.07471L62.7656 9.8501H60.1934C60.0527 8.90088 59.8906 7.65088 59.707 6.1001C59.6445 6.77979 59.5566 7.46729 59.4434 8.1626L59.1797 9.8501H56.6074L55.6055 2.07471H57.6445C57.6602 2.27783 57.832 3.76025 58.1602 6.52197C58.1836 6.24072 58.3594 4.7583 58.6875 2.07471H60.6504L61.1309 6.52197C61.2051 5.2251 61.3848 3.74268 61.6699 2.07471H63.709ZM70.5527 0.36377L71.9648 9.8501H69.4395L69.3164 8.14502H68.4316L68.2852 9.8501H65.7305L66.9844 0.36377H70.5527ZM69.2461 6.46338C69.1211 5.38916 68.9961 4.06299 68.8711 2.48486C68.6211 4.29736 68.4648 5.62354 68.4023 6.46338H69.2461ZM77.5488 5.01025H75.3164V4.11377C75.3164 3.80127 75.291 3.59033 75.2402 3.48096C75.1895 3.36768 75.0957 3.31104 74.959 3.31104C74.8223 3.31104 74.7305 3.35986 74.6836 3.45752C74.6367 3.55518 74.6133 3.77393 74.6133 4.11377V7.78174C74.6133 8.05908 74.6484 8.26807 74.7188 8.40869C74.7891 8.54541 74.8926 8.61377 75.0293 8.61377C75.1895 8.61377 75.2969 8.5415 75.3516 8.39697C75.4102 8.25244 75.4395 7.979 75.4395 7.57666V6.65088H77.5488C77.5449 7.27197 77.5215 7.73877 77.4785 8.05127C77.4395 8.35986 77.3086 8.67822 77.0859 9.00635C76.8672 9.33057 76.5801 9.57666 76.2246 9.74463C75.8691 9.90869 75.4297 9.99072 74.9062 9.99072C74.2383 9.99072 73.709 9.87744 73.3184 9.65088C72.9277 9.42041 72.6504 9.1001 72.4863 8.68994C72.3262 8.27588 72.2461 7.68994 72.2461 6.93213V4.72314C72.2461 4.06299 72.3125 3.56494 72.4453 3.229C72.5781 2.89307 72.8613 2.59424 73.2949 2.33252C73.7285 2.06689 74.2559 1.93408 74.877 1.93408C75.4941 1.93408 76.0215 2.06494 76.459 2.32666C76.8965 2.58838 77.1875 2.91846 77.332 3.31689C77.4766 3.71533 77.5488 4.27979 77.5488 5.01025ZM83.4902 5.01025H81.2578V4.11377C81.2578 3.80127 81.2324 3.59033 81.1816 3.48096C81.1309 3.36768 81.0371 3.31104 80.9004 3.31104C80.7637 3.31104 80.6719 3.35986 80.625 3.45752C80.5781 3.55518 80.5547 3.77393 80.5547 4.11377V7.78174C80.5547 8.05908 80.5898 8.26807 80.6602 8.40869C80.7305 8.54541 80.834 8.61377 80.9707 8.61377C81.1309 8.61377 81.2383 8.5415 81.293 8.39697C81.3516 8.25244 81.3809 7.979 81.3809 7.57666V6.65088H83.4902C83.4863 7.27197 83.4629 7.73877 83.4199 8.05127C83.3809 8.35986 83.25 8.67822 83.0273 9.00635C82.8086 9.33057 82.5215 9.57666 82.166 9.74463C81.8105 9.90869 81.3711 9.99072 80.8477 9.99072C80.1797 9.99072 79.6504 9.87744 79.2598 9.65088C78.8691 9.42041 78.5918 9.1001 78.4277 8.68994C78.2676 8.27588 78.1875 7.68994 78.1875 6.93213V4.72314C78.1875 4.06299 78.2539 3.56494 78.3867 3.229C78.5195 2.89307 78.8027 2.59424 79.2363 2.33252C79.6699 2.06689 80.1973 1.93408 80.8184 1.93408C81.4355 1.93408 81.9629 2.06494 82.4004 2.32666C82.8379 2.58838 83.1289 2.91846 83.2734 3.31689C83.418 3.71533 83.4902 4.27979 83.4902 5.01025ZM89.5547 4.80518V6.70947C89.5547 7.40869 89.5195 7.92236 89.4492 8.25049C89.3789 8.57471 89.2285 8.87939 88.998 9.16455C88.7676 9.4458 88.4707 9.65479 88.1074 9.7915C87.748 9.92432 87.334 9.99072 86.8652 9.99072C86.3418 9.99072 85.8984 9.93408 85.5352 9.8208C85.1719 9.70361 84.8887 9.52979 84.6855 9.29932C84.4863 9.06494 84.3438 8.78369 84.2578 8.45557C84.1719 8.12354 84.1289 7.62744 84.1289 6.96729V4.9751C84.1289 4.25244 84.207 3.68799 84.3633 3.28174C84.5195 2.87549 84.8008 2.54932 85.207 2.30322C85.6133 2.05713 86.1328 1.93408 86.7656 1.93408C87.2969 1.93408 87.752 2.01416 88.1309 2.17432C88.5137 2.33057 88.8086 2.53564 89.0156 2.78955C89.2227 3.04346 89.3633 3.30518 89.4375 3.57471C89.5156 3.84424 89.5547 4.25439 89.5547 4.80518ZM87.1875 4.21924C87.1875 3.8208 87.166 3.5708 87.123 3.46924C87.0801 3.36377 86.9883 3.31104 86.8477 3.31104C86.707 3.31104 86.6133 3.36377 86.5664 3.46924C86.5195 3.5708 86.4961 3.8208 86.4961 4.21924V7.729C86.4961 8.09619 86.5195 8.33643 86.5664 8.44971C86.6133 8.55908 86.7051 8.61377 86.8418 8.61377C86.9824 8.61377 87.0742 8.56299 87.1172 8.46143C87.1641 8.35986 87.1875 8.14111 87.1875 7.80518V4.21924ZM95.7598 2.07471V9.8501H93.3516L93.3926 9.20557C93.2285 9.46729 93.0254 9.66455 92.7832 9.79736C92.5449 9.92627 92.2695 9.99072 91.957 9.99072C91.6016 9.99072 91.3066 9.92822 91.0723 9.80322C90.8379 9.67822 90.6641 9.51221 90.5508 9.30518C90.4414 9.09814 90.373 8.8833 90.3457 8.66064C90.3184 8.43408 90.3047 7.98682 90.3047 7.31885V2.07471H92.6719V7.36572C92.6719 7.97119 92.6895 8.33057 92.7246 8.44385C92.7637 8.55713 92.8652 8.61377 93.0293 8.61377C93.2051 8.61377 93.3086 8.55518 93.3398 8.43799C93.375 8.3208 93.3926 7.94385 93.3926 7.30713V2.07471H95.7598ZM99.0176 2.07471L98.9766 2.78955C99.1484 2.50439 99.3574 2.2915 99.6035 2.15088C99.8535 2.00635 100.141 1.93408 100.465 1.93408C100.871 1.93408 101.203 2.02979 101.461 2.22119C101.719 2.4126 101.885 2.65479 101.959 2.94775C102.033 3.23682 102.07 3.72119 102.07 4.40088V9.8501H99.7031V4.46533C99.7031 3.93018 99.6855 3.604 99.6504 3.48682C99.6152 3.36963 99.5176 3.31104 99.3574 3.31104C99.1895 3.31104 99.084 3.37939 99.041 3.51611C98.998 3.64893 98.9766 4.0083 98.9766 4.59424V9.8501H96.6094V2.07471H99.0176ZM105.387 1.0376V2.26221H106.025V3.49268H105.387V7.65283C105.387 8.16455 105.412 8.44971 105.463 8.5083C105.518 8.56689 105.738 8.59619 106.125 8.59619V9.8501H105.17C104.631 9.8501 104.246 9.82861 104.016 9.78564C103.785 9.73877 103.582 9.63525 103.406 9.4751C103.23 9.31104 103.121 9.12549 103.078 8.91846C103.035 8.70752 103.014 8.21533 103.014 7.44189V3.49268H102.504V2.26221H103.014V1.0376H105.387ZM109.148 0.36377L108.762 7.50635H106.934L106.547 0.36377H109.148ZM108.955 7.95166V9.8501H106.74V7.95166H108.955Z" fill="white"/>
</g>
<defs>
<clipPath id="clip0_1042_103">
<rect width="110" height="10" fill="white"/>
</clipPath>
</defs>
</svg>
