<svg width="44" height="11" viewBox="0 0 44 11" fill="none" xmlns="http://www.w3.org/2000/svg">
<g clip-path="url(#clip0_1038_31)">
<path d="M0.492188 0.483643H4.60547V2.38208H2.95898V4.18091H4.5V5.9856H2.95898V8.07153H4.76953V9.96997H0.492188V0.483643ZM10.248 4.67896H8.15039V4.25708C8.15039 3.89771 8.12891 3.67114 8.08594 3.57739C8.04688 3.47974 7.94531 3.43091 7.78125 3.43091C7.64844 3.43091 7.54883 3.47583 7.48242 3.56567C7.41602 3.65161 7.38281 3.78247 7.38281 3.95825C7.38281 4.19653 7.39844 4.37231 7.42969 4.4856C7.46484 4.59497 7.56445 4.71606 7.72852 4.84888C7.89648 4.98169 8.23828 5.17505 8.75391 5.42896C9.44141 5.76489 9.89258 6.0813 10.1074 6.37817C10.3223 6.67505 10.4297 7.10669 10.4297 7.6731C10.4297 8.30591 10.3477 8.78442 10.1836 9.10864C10.0195 9.42896 9.74414 9.677 9.35742 9.85278C8.97461 10.0247 8.51172 10.1106 7.96875 10.1106C7.36719 10.1106 6.85156 10.0168 6.42188 9.82935C5.99609 9.64185 5.70312 9.38794 5.54297 9.06763C5.38281 8.74731 5.30273 8.26294 5.30273 7.6145V7.2395H7.40039V7.73169C7.40039 8.14966 7.42578 8.42114 7.47656 8.54614C7.53125 8.67114 7.63672 8.73364 7.79297 8.73364C7.96094 8.73364 8.07812 8.69263 8.14453 8.6106C8.21094 8.52466 8.24414 8.34692 8.24414 8.07739C8.24414 7.7063 8.20117 7.47388 8.11523 7.38013C8.02539 7.28638 7.56641 7.00903 6.73828 6.5481C6.04297 6.15747 5.61914 5.80396 5.4668 5.48755C5.31445 5.16724 5.23828 4.78833 5.23828 4.35083C5.23828 3.72974 5.32031 3.27271 5.48438 2.97974C5.64844 2.68286 5.92578 2.45435 6.31641 2.29419C6.71094 2.13403 7.16797 2.05396 7.6875 2.05396C8.20312 2.05396 8.64062 2.12036 9 2.25317C9.36328 2.38208 9.64062 2.55396 9.83203 2.7688C10.0273 2.98364 10.1445 3.18286 10.1836 3.36646C10.2266 3.55005 10.248 3.83716 10.248 4.22778V4.67896ZM16.4297 2.19458V11.0774H14.0625V9.34302C13.832 9.67896 13.6191 9.88989 13.4238 9.97583C13.2324 10.0657 12.9941 10.1106 12.709 10.1106C12.2949 10.1106 11.9512 10.0129 11.6777 9.81763C11.4082 9.62231 11.2266 9.37036 11.1328 9.06177C11.0391 8.74927 10.9922 8.27271 10.9922 7.63208V4.20435C10.9922 3.677 11.0273 3.28442 11.0977 3.02661C11.168 2.76489 11.3359 2.53833 11.6016 2.34692C11.8711 2.15161 12.1895 2.05396 12.5566 2.05396C12.8535 2.05396 13.127 2.12036 13.377 2.25317C13.627 2.38599 13.8555 2.58716 14.0625 2.85669L14.1035 2.19458H16.4297ZM14.0625 4.30981C14.0625 3.96606 14.0352 3.73364 13.9805 3.61255C13.9297 3.49146 13.8359 3.43091 13.6992 3.43091C13.5664 3.43091 13.4766 3.48364 13.4297 3.58911C13.3828 3.69458 13.3594 3.93481 13.3594 4.30981V7.77271C13.3594 8.19067 13.3828 8.4563 13.4297 8.56958C13.4766 8.67896 13.5723 8.73364 13.7168 8.73364C13.8535 8.73364 13.9453 8.677 13.9922 8.56372C14.0391 8.44653 14.0625 8.19458 14.0625 7.80786V4.30981ZM22.7051 2.19458V9.96997H20.2969L20.3379 9.32544C20.1738 9.58716 19.9707 9.78442 19.7285 9.91724C19.4902 10.0461 19.2148 10.1106 18.9023 10.1106C18.5469 10.1106 18.252 10.0481 18.0176 9.9231C17.7832 9.7981 17.6094 9.63208 17.4961 9.42505C17.3867 9.21802 17.3184 9.00317 17.291 8.78052C17.2637 8.55396 17.25 8.10669 17.25 7.43872V2.19458H19.6172V7.4856C19.6172 8.09106 19.6348 8.45044 19.6699 8.56372C19.709 8.677 19.8105 8.73364 19.9746 8.73364C20.1504 8.73364 20.2539 8.67505 20.2852 8.55786C20.3203 8.44067 20.3379 8.06372 20.3379 7.427V2.19458H22.7051ZM25.9922 0.483643V1.71997H23.5547V0.483643H25.9922ZM25.9922 2.19458V9.96997H23.5547V2.19458H25.9922ZM31.6816 4.67896H29.584V4.25708C29.584 3.89771 29.5625 3.67114 29.5195 3.57739C29.4805 3.47974 29.3789 3.43091 29.2148 3.43091C29.082 3.43091 28.9824 3.47583 28.916 3.56567C28.8496 3.65161 28.8164 3.78247 28.8164 3.95825C28.8164 4.19653 28.832 4.37231 28.8633 4.4856C28.8984 4.59497 28.998 4.71606 29.1621 4.84888C29.3301 4.98169 29.6719 5.17505 30.1875 5.42896C30.875 5.76489 31.3262 6.0813 31.541 6.37817C31.7559 6.67505 31.8633 7.10669 31.8633 7.6731C31.8633 8.30591 31.7812 8.78442 31.6172 9.10864C31.4531 9.42896 31.1777 9.677 30.791 9.85278C30.4082 10.0247 29.9453 10.1106 29.4023 10.1106C28.8008 10.1106 28.2852 10.0168 27.8555 9.82935C27.4297 9.64185 27.1367 9.38794 26.9766 9.06763C26.8164 8.74731 26.7363 8.26294 26.7363 7.6145V7.2395H28.834V7.73169C28.834 8.14966 28.8594 8.42114 28.9102 8.54614C28.9648 8.67114 29.0703 8.73364 29.2266 8.73364C29.3945 8.73364 29.5117 8.69263 29.5781 8.6106C29.6445 8.52466 29.6777 8.34692 29.6777 8.07739C29.6777 7.7063 29.6348 7.47388 29.5488 7.38013C29.459 7.28638 29 7.00903 28.1719 6.5481C27.4766 6.15747 27.0527 5.80396 26.9004 5.48755C26.748 5.16724 26.6719 4.78833 26.6719 4.35083C26.6719 3.72974 26.7539 3.27271 26.918 2.97974C27.082 2.68286 27.3594 2.45435 27.75 2.29419C28.1445 2.13403 28.6016 2.05396 29.1211 2.05396C29.6367 2.05396 30.0742 2.12036 30.4336 2.25317C30.7969 2.38208 31.0742 2.55396 31.2656 2.7688C31.4609 2.98364 31.5781 3.18286 31.6172 3.36646C31.6602 3.55005 31.6816 3.83716 31.6816 4.22778V4.67896ZM37.3301 4.67896H35.2324V4.25708C35.2324 3.89771 35.2109 3.67114 35.168 3.57739C35.1289 3.47974 35.0273 3.43091 34.8633 3.43091C34.7305 3.43091 34.6309 3.47583 34.5645 3.56567C34.498 3.65161 34.4648 3.78247 34.4648 3.95825C34.4648 4.19653 34.4805 4.37231 34.5117 4.4856C34.5469 4.59497 34.6465 4.71606 34.8105 4.84888C34.9785 4.98169 35.3203 5.17505 35.8359 5.42896C36.5234 5.76489 36.9746 6.0813 37.1895 6.37817C37.4043 6.67505 37.5117 7.10669 37.5117 7.6731C37.5117 8.30591 37.4297 8.78442 37.2656 9.10864C37.1016 9.42896 36.8262 9.677 36.4395 9.85278C36.0566 10.0247 35.5938 10.1106 35.0508 10.1106C34.4492 10.1106 33.9336 10.0168 33.5039 9.82935C33.0781 9.64185 32.7852 9.38794 32.625 9.06763C32.4648 8.74731 32.3848 8.26294 32.3848 7.6145V7.2395H34.4824V7.73169C34.4824 8.14966 34.5078 8.42114 34.5586 8.54614C34.6133 8.67114 34.7188 8.73364 34.875 8.73364C35.043 8.73364 35.1602 8.69263 35.2266 8.6106C35.293 8.52466 35.3262 8.34692 35.3262 8.07739C35.3262 7.7063 35.2832 7.47388 35.1973 7.38013C35.1074 7.28638 34.6484 7.00903 33.8203 6.5481C33.125 6.15747 32.7012 5.80396 32.5488 5.48755C32.3965 5.16724 32.3203 4.78833 32.3203 4.35083C32.3203 3.72974 32.4023 3.27271 32.5664 2.97974C32.7305 2.68286 33.0078 2.45435 33.3984 2.29419C33.793 2.13403 34.25 2.05396 34.7695 2.05396C35.2852 2.05396 35.7227 2.12036 36.082 2.25317C36.4453 2.38208 36.7227 2.55396 36.9141 2.7688C37.1094 2.98364 37.2266 3.18286 37.2656 3.36646C37.3086 3.55005 37.3301 3.83716 37.3301 4.22778V4.67896ZM43.5059 6.21997H40.4414V7.90161C40.4414 8.25317 40.4668 8.47974 40.5176 8.5813C40.5684 8.68286 40.666 8.73364 40.8105 8.73364C40.9902 8.73364 41.1094 8.66724 41.168 8.53442C41.2305 8.39771 41.2617 8.13599 41.2617 7.74927V6.72388H43.5059V7.2981C43.5059 7.77856 43.4746 8.14771 43.4121 8.40552C43.3535 8.66333 43.2129 8.93872 42.9902 9.23169C42.7676 9.52466 42.4844 9.74536 42.1406 9.8938C41.8008 10.0383 41.373 10.1106 40.8574 10.1106C40.3574 10.1106 39.916 10.0383 39.5332 9.8938C39.1504 9.74927 38.8516 9.552 38.6367 9.302C38.4258 9.0481 38.2793 8.77075 38.1973 8.46997C38.1152 8.16528 38.0742 7.72388 38.0742 7.14575V4.87817C38.0742 4.19849 38.166 3.66333 38.3496 3.27271C38.5332 2.87817 38.834 2.57739 39.252 2.37036C39.6699 2.15942 40.1504 2.05396 40.6934 2.05396C41.3574 2.05396 41.9043 2.18091 42.334 2.43481C42.7676 2.68481 43.0703 3.0188 43.2422 3.43677C43.418 3.85083 43.5059 4.43481 43.5059 5.18872V6.21997ZM41.1328 4.95435V4.38599C41.1328 3.98364 41.1113 3.72388 41.0684 3.60669C41.0254 3.4895 40.9375 3.43091 40.8047 3.43091C40.6406 3.43091 40.5391 3.48169 40.5 3.58325C40.4609 3.68091 40.4414 3.94849 40.4414 4.38599V4.95435H41.1328Z" fill="white"/>
</g>
<defs>
<clipPath id="clip0_1038_31">
<rect width="44" height="11" fill="white"/>
</clipPath>
</defs>
</svg>
