<svg width="55" height="11" viewBox="0 0 55 11" fill="none" xmlns="http://www.w3.org/2000/svg">
<g clip-path="url(#clip0_1042_154)">
<path d="M0.492188 0.00366211H4.60547V1.9021H2.95898V3.70093H4.5V5.50562H2.95898V7.59155H4.76953V9.48999H0.492188V0.00366211ZM10.1016 1.7146L9.1582 5.42944L10.3008 9.48999H7.99805C7.77148 8.46655 7.59961 7.58569 7.48242 6.84741C7.32617 7.76929 7.15625 8.65015 6.97266 9.48999H4.99219L6.01172 5.42944L4.99219 1.7146H6.97266C7.28906 3.30054 7.45898 4.20093 7.48242 4.41577C7.70898 3.09155 7.88086 2.19116 7.99805 1.7146H10.1016ZM13.0254 1.7146L12.9844 2.40015C13.1953 2.1228 13.4277 1.91577 13.6816 1.77905C13.9355 1.64233 14.2129 1.57397 14.5137 1.57397C14.8809 1.57397 15.1973 1.67358 15.4629 1.8728C15.7324 2.06812 15.9004 2.29468 15.9668 2.55249C16.0332 2.8103 16.0664 3.2478 16.0664 3.86499V7.14038C16.0664 7.84741 16.0234 8.35132 15.9375 8.6521C15.8555 8.94897 15.6836 9.18726 15.4219 9.36694C15.1641 9.54272 14.8516 9.63062 14.4844 9.63062C14.1914 9.63062 13.9199 9.56226 13.6699 9.42554C13.4199 9.28882 13.1914 9.08569 12.9844 8.81616V10.5974H10.6172V1.7146H13.0254ZM13.6992 3.97632C13.6992 3.49585 13.6816 3.20483 13.6465 3.10327C13.6113 3.00171 13.5137 2.95093 13.3535 2.95093C13.1973 2.95093 13.0957 3.00952 13.0488 3.12671C13.0059 3.2439 12.9844 3.5271 12.9844 3.97632V7.19897C12.9844 7.66772 13.0078 7.96069 13.0547 8.07788C13.1016 8.19507 13.2031 8.25366 13.3594 8.25366C13.5117 8.25366 13.6055 8.20093 13.6406 8.09546C13.6797 7.98608 13.6992 7.72437 13.6992 7.3103V3.97632ZM22.2129 5.73999H19.1484V7.42163C19.1484 7.77319 19.1738 7.99976 19.2246 8.10132C19.2754 8.20288 19.373 8.25366 19.5176 8.25366C19.6973 8.25366 19.8164 8.18726 19.875 8.05444C19.9375 7.91772 19.9688 7.65601 19.9688 7.26929V6.2439H22.2129V6.81812C22.2129 7.29858 22.1816 7.66772 22.1191 7.92554C22.0605 8.18335 21.9199 8.45874 21.6973 8.75171C21.4746 9.04468 21.1914 9.26538 20.8477 9.41382C20.5078 9.55835 20.0801 9.63062 19.5645 9.63062C19.0645 9.63062 18.623 9.55835 18.2402 9.41382C17.8574 9.26929 17.5586 9.07202 17.3438 8.82202C17.1328 8.56812 16.9863 8.29077 16.9043 7.98999C16.8223 7.6853 16.7812 7.2439 16.7812 6.66577V4.39819C16.7812 3.71851 16.873 3.18335 17.0566 2.79272C17.2402 2.39819 17.541 2.09741 17.959 1.89038C18.377 1.67944 18.8574 1.57397 19.4004 1.57397C20.0645 1.57397 20.6113 1.70093 21.041 1.95483C21.4746 2.20483 21.7773 2.53882 21.9492 2.95679C22.125 3.37085 22.2129 3.95483 22.2129 4.70874V5.73999ZM19.8398 4.47437V3.90601C19.8398 3.50366 19.8184 3.2439 19.7754 3.12671C19.7324 3.00952 19.6445 2.95093 19.5117 2.95093C19.3477 2.95093 19.2461 3.00171 19.207 3.10327C19.168 3.20093 19.1484 3.46851 19.1484 3.90601V4.47437H19.8398ZM25.3594 1.7146L25.2656 2.73413C25.6094 2.00366 26.1074 1.61694 26.7598 1.57397V4.3103C26.3262 4.3103 26.0078 4.3689 25.8047 4.48608C25.6016 4.60327 25.4766 4.76733 25.4297 4.97827C25.3828 5.1853 25.3594 5.66577 25.3594 6.41968V9.48999H22.9922V1.7146H25.3594ZM29.7305 0.00366211V1.23999H27.293V0.00366211H29.7305ZM29.7305 1.7146V9.48999H27.293V1.7146H29.7305ZM35.9473 5.73999H32.8828V7.42163C32.8828 7.77319 32.9082 7.99976 32.959 8.10132C33.0098 8.20288 33.1074 8.25366 33.252 8.25366C33.4316 8.25366 33.5508 8.18726 33.6094 8.05444C33.6719 7.91772 33.7031 7.65601 33.7031 7.26929V6.2439H35.9473V6.81812C35.9473 7.29858 35.916 7.66772 35.8535 7.92554C35.7949 8.18335 35.6543 8.45874 35.4316 8.75171C35.209 9.04468 34.9258 9.26538 34.582 9.41382C34.2422 9.55835 33.8145 9.63062 33.2988 9.63062C32.7988 9.63062 32.3574 9.55835 31.9746 9.41382C31.5918 9.26929 31.293 9.07202 31.0781 8.82202C30.8672 8.56812 30.7207 8.29077 30.6387 7.98999C30.5566 7.6853 30.5156 7.2439 30.5156 6.66577V4.39819C30.5156 3.71851 30.6074 3.18335 30.791 2.79272C30.9746 2.39819 31.2754 2.09741 31.6934 1.89038C32.1113 1.67944 32.5918 1.57397 33.1348 1.57397C33.7988 1.57397 34.3457 1.70093 34.7754 1.95483C35.209 2.20483 35.5117 2.53882 35.6836 2.95679C35.8594 3.37085 35.9473 3.95483 35.9473 4.70874V5.73999ZM33.5742 4.47437V3.90601C33.5742 3.50366 33.5527 3.2439 33.5098 3.12671C33.4668 3.00952 33.3789 2.95093 33.2461 2.95093C33.082 2.95093 32.9805 3.00171 32.9414 3.10327C32.9023 3.20093 32.8828 3.46851 32.8828 3.90601V4.47437H33.5742ZM39.1348 1.7146L39.0938 2.42944C39.2656 2.14429 39.4746 1.9314 39.7207 1.79077C39.9707 1.64624 40.2578 1.57397 40.582 1.57397C40.9883 1.57397 41.3203 1.66968 41.5781 1.86108C41.8359 2.05249 42.002 2.29468 42.0762 2.58765C42.1504 2.87671 42.1875 3.36108 42.1875 4.04077V9.48999H39.8203V4.10522C39.8203 3.57007 39.8027 3.2439 39.7676 3.12671C39.7324 3.00952 39.6348 2.95093 39.4746 2.95093C39.3066 2.95093 39.2012 3.01929 39.1582 3.15601C39.1152 3.28882 39.0938 3.64819 39.0938 4.23413V9.48999H36.7266V1.7146H39.1348ZM48.2402 4.65015H46.0078V3.75366C46.0078 3.44116 45.9824 3.23022 45.9316 3.12085C45.8809 3.00757 45.7871 2.95093 45.6504 2.95093C45.5137 2.95093 45.4219 2.99976 45.375 3.09741C45.3281 3.19507 45.3047 3.41382 45.3047 3.75366V7.42163C45.3047 7.69897 45.3398 7.90796 45.4102 8.04858C45.4805 8.1853 45.584 8.25366 45.7207 8.25366C45.8809 8.25366 45.9883 8.1814 46.043 8.03687C46.1016 7.89233 46.1309 7.6189 46.1309 7.21655V6.29077H48.2402C48.2363 6.91187 48.2129 7.37866 48.1699 7.69116C48.1309 7.99976 48 8.31812 47.7773 8.64624C47.5586 8.97046 47.2715 9.21655 46.916 9.38452C46.5605 9.54858 46.1211 9.63062 45.5977 9.63062C44.9297 9.63062 44.4004 9.51733 44.0098 9.29077C43.6191 9.0603 43.3418 8.73999 43.1777 8.32983C43.0176 7.91577 42.9375 7.32983 42.9375 6.57202V4.36304C42.9375 3.70288 43.0039 3.20483 43.1367 2.8689C43.2695 2.53296 43.5527 2.23413 43.9863 1.97241C44.4199 1.70679 44.9473 1.57397 45.5684 1.57397C46.1855 1.57397 46.7129 1.70483 47.1504 1.96655C47.5879 2.22827 47.8789 2.55835 48.0234 2.95679C48.168 3.35522 48.2402 3.91968 48.2402 4.65015ZM54.3105 5.73999H51.2461V7.42163C51.2461 7.77319 51.2715 7.99976 51.3223 8.10132C51.373 8.20288 51.4707 8.25366 51.6152 8.25366C51.7949 8.25366 51.9141 8.18726 51.9727 8.05444C52.0352 7.91772 52.0664 7.65601 52.0664 7.26929V6.2439H54.3105V6.81812C54.3105 7.29858 54.2793 7.66772 54.2168 7.92554C54.1582 8.18335 54.0176 8.45874 53.7949 8.75171C53.5723 9.04468 53.2891 9.26538 52.9453 9.41382C52.6055 9.55835 52.1777 9.63062 51.6621 9.63062C51.1621 9.63062 50.7207 9.55835 50.3379 9.41382C49.9551 9.26929 49.6562 9.07202 49.4414 8.82202C49.2305 8.56812 49.084 8.29077 49.002 7.98999C48.9199 7.6853 48.8789 7.2439 48.8789 6.66577V4.39819C48.8789 3.71851 48.9707 3.18335 49.1543 2.79272C49.3379 2.39819 49.6387 2.09741 50.0566 1.89038C50.4746 1.67944 50.9551 1.57397 51.498 1.57397C52.1621 1.57397 52.709 1.70093 53.1387 1.95483C53.5723 2.20483 53.875 2.53882 54.0469 2.95679C54.2227 3.37085 54.3105 3.95483 54.3105 4.70874V5.73999ZM51.9375 4.47437V3.90601C51.9375 3.50366 51.916 3.2439 51.873 3.12671C51.8301 3.00952 51.7422 2.95093 51.6094 2.95093C51.4453 2.95093 51.3438 3.00171 51.3047 3.10327C51.2656 3.20093 51.2461 3.46851 51.2461 3.90601V4.47437H51.9375Z" fill="#D37D74"/>
</g>
<defs>
<clipPath id="clip0_1042_154">
<rect width="55" height="11" fill="white"/>
</clipPath>
</defs>
</svg>
