<svg width="31" height="10" viewBox="0 0 31 10" fill="none" xmlns="http://www.w3.org/2000/svg">
<g clip-path="url(#clip0_1038_34)">
<path d="M0.492188 0.483643H4.66992V2.38208H2.95898V4.18091H4.48242V5.9856H2.95898V9.96997H0.492188V0.483643ZM10.5586 4.92505V6.82935C10.5586 7.52856 10.5234 8.04224 10.4531 8.37036C10.3828 8.69458 10.2324 8.99927 10.002 9.28442C9.77148 9.56567 9.47461 9.77466 9.11133 9.91138C8.75195 10.0442 8.33789 10.1106 7.86914 10.1106C7.3457 10.1106 6.90234 10.054 6.53906 9.94067C6.17578 9.82349 5.89258 9.64966 5.68945 9.41919C5.49023 9.18481 5.34766 8.90356 5.26172 8.57544C5.17578 8.24341 5.13281 7.74731 5.13281 7.08716V5.09497C5.13281 4.37231 5.21094 3.80786 5.36719 3.40161C5.52344 2.99536 5.80469 2.66919 6.21094 2.4231C6.61719 2.177 7.13672 2.05396 7.76953 2.05396C8.30078 2.05396 8.75586 2.13403 9.13477 2.29419C9.51758 2.45044 9.8125 2.65552 10.0195 2.90942C10.2266 3.16333 10.3672 3.42505 10.4414 3.69458C10.5195 3.96411 10.5586 4.37427 10.5586 4.92505ZM8.19141 4.33911C8.19141 3.94067 8.16992 3.69067 8.12695 3.58911C8.08398 3.48364 7.99219 3.43091 7.85156 3.43091C7.71094 3.43091 7.61719 3.48364 7.57031 3.58911C7.52344 3.69067 7.5 3.94067 7.5 4.33911V7.84888C7.5 8.21606 7.52344 8.4563 7.57031 8.56958C7.61719 8.67896 7.70898 8.73364 7.8457 8.73364C7.98633 8.73364 8.07812 8.68286 8.12109 8.5813C8.16797 8.47974 8.19141 8.26099 8.19141 7.92505V4.33911ZM13.7109 2.19458L13.6172 3.21411C13.9609 2.48364 14.459 2.09692 15.1113 2.05396V4.79028C14.6777 4.79028 14.3594 4.84888 14.1562 4.96606C13.9531 5.08325 13.8281 5.24731 13.7812 5.45825C13.7344 5.66528 13.7109 6.14575 13.7109 6.89966V9.96997H11.3438V2.19458H13.7109ZM21.0645 2.19458V9.96997H18.6562L18.6973 9.32544C18.5332 9.58716 18.3301 9.78442 18.0879 9.91724C17.8496 10.0461 17.5742 10.1106 17.2617 10.1106C16.9062 10.1106 16.6113 10.0481 16.377 9.9231C16.1426 9.7981 15.9688 9.63208 15.8555 9.42505C15.7461 9.21802 15.6777 9.00317 15.6504 8.78052C15.623 8.55396 15.6094 8.10669 15.6094 7.43872V2.19458H17.9766V7.4856C17.9766 8.09106 17.9941 8.45044 18.0293 8.56372C18.0684 8.677 18.1699 8.73364 18.334 8.73364C18.5098 8.73364 18.6133 8.67505 18.6445 8.55786C18.6797 8.44067 18.6973 8.06372 18.6973 7.427V2.19458H21.0645ZM24.252 2.19458L24.2109 2.93286C24.3945 2.63989 24.6133 2.42114 24.8672 2.27661C25.1211 2.12817 25.4102 2.05396 25.7344 2.05396C26.3672 2.05396 26.8652 2.34692 27.2285 2.93286C27.4277 2.63989 27.6523 2.42114 27.9023 2.27661C28.1523 2.12817 28.4297 2.05396 28.7344 2.05396C29.1367 2.05396 29.4688 2.15161 29.7305 2.34692C29.9961 2.54224 30.166 2.78247 30.2402 3.06763C30.3145 3.34888 30.3516 3.80786 30.3516 4.44458V9.96997H28.0547V4.90161C28.0547 4.23755 28.0312 3.82739 27.9844 3.67114C27.9414 3.51099 27.8379 3.43091 27.6738 3.43091C27.5059 3.43091 27.3965 3.50903 27.3457 3.66528C27.2988 3.82153 27.2754 4.23364 27.2754 4.90161V9.96997H24.9785V5.03052C24.9785 4.2688 24.959 3.81177 24.9199 3.65942C24.8848 3.50708 24.7832 3.43091 24.6152 3.43091C24.5098 3.43091 24.4199 3.47192 24.3457 3.55396C24.2715 3.63208 24.2305 3.72974 24.2227 3.84692C24.2148 3.96021 24.2109 4.20435 24.2109 4.57935V9.96997H21.9141V2.19458H24.252Z" fill="white"/>
</g>
<defs>
<clipPath id="clip0_1038_34">
<rect width="31" height="10" fill="white"/>
</clipPath>
</defs>
</svg>
