<svg width="41" height="10" viewBox="0 0 41 10" fill="none" xmlns="http://www.w3.org/2000/svg">
<g clip-path="url(#clip0_1038_37)">
<path d="M6.16406 0.483643V9.96997H3.69727V5.9856H2.95898V9.96997H0.492188V0.483643H2.95898V3.87622H3.69727V0.483643H6.16406ZM12.4453 4.92505V6.82935C12.4453 7.52856 12.4102 8.04224 12.3398 8.37036C12.2695 8.69458 12.1191 8.99927 11.8887 9.28442C11.6582 9.56567 11.3613 9.77466 10.998 9.91138C10.6387 10.0442 10.2246 10.1106 9.75586 10.1106C9.23242 10.1106 8.78906 10.054 8.42578 9.94067C8.0625 9.82349 7.7793 9.64966 7.57617 9.41919C7.37695 9.18481 7.23438 8.90356 7.14844 8.57544C7.0625 8.24341 7.01953 7.74731 7.01953 7.08716V5.09497C7.01953 4.37231 7.09766 3.80786 7.25391 3.40161C7.41016 2.99536 7.69141 2.66919 8.09766 2.4231C8.50391 2.177 9.02344 2.05396 9.65625 2.05396C10.1875 2.05396 10.6426 2.13403 11.0215 2.29419C11.4043 2.45044 11.6992 2.65552 11.9062 2.90942C12.1133 3.16333 12.2539 3.42505 12.3281 3.69458C12.4062 3.96411 12.4453 4.37427 12.4453 4.92505ZM10.0781 4.33911C10.0781 3.94067 10.0566 3.69067 10.0137 3.58911C9.9707 3.48364 9.87891 3.43091 9.73828 3.43091C9.59766 3.43091 9.50391 3.48364 9.45703 3.58911C9.41016 3.69067 9.38672 3.94067 9.38672 4.33911V7.84888C9.38672 8.21606 9.41016 8.4563 9.45703 8.56958C9.50391 8.67896 9.5957 8.73364 9.73242 8.73364C9.87305 8.73364 9.96484 8.68286 10.0078 8.5813C10.0547 8.47974 10.0781 8.26099 10.0781 7.92505V4.33911ZM18.3281 2.19458L17.3672 5.29419L18.6152 9.96997H16.3359L15.5977 6.58325V9.96997H13.2305V0.483643H15.5977V4.46802L16.3359 2.19458H18.3281ZM24.3926 2.19458V9.96997H21.9844L22.0254 9.32544C21.8613 9.58716 21.6582 9.78442 21.416 9.91724C21.1777 10.0461 20.9023 10.1106 20.5898 10.1106C20.2344 10.1106 19.9395 10.0481 19.7051 9.9231C19.4707 9.7981 19.2969 9.63208 19.1836 9.42505C19.0742 9.21802 19.0059 9.00317 18.9785 8.78052C18.9512 8.55396 18.9375 8.10669 18.9375 7.43872V2.19458H21.3047V7.4856C21.3047 8.09106 21.3223 8.45044 21.3574 8.56372C21.3965 8.677 21.498 8.73364 21.6621 8.73364C21.8379 8.73364 21.9414 8.67505 21.9727 8.55786C22.0078 8.44067 22.0254 8.06372 22.0254 7.427V2.19458H24.3926ZM30.627 0.483643V9.96997H28.2598V9.40747C28.0332 9.64185 27.7949 9.81763 27.5449 9.93481C27.2949 10.052 27.0332 10.1106 26.7598 10.1106C26.3926 10.1106 26.0742 10.0149 25.8047 9.82349C25.5352 9.62817 25.3613 9.40356 25.2832 9.14966C25.209 8.89575 25.1719 8.48169 25.1719 7.90747V4.2688C25.1719 3.67114 25.209 3.24731 25.2832 2.99731C25.3613 2.74731 25.5371 2.52856 25.8105 2.34106C26.084 2.14966 26.4102 2.05396 26.7891 2.05396C27.082 2.05396 27.3496 2.10669 27.5918 2.21216C27.8379 2.31763 28.0605 2.47583 28.2598 2.68677V0.483643H30.627ZM28.2598 4.15161C28.2598 3.86646 28.2344 3.67505 28.1836 3.57739C28.1367 3.47974 28.041 3.43091 27.8965 3.43091C27.7559 3.43091 27.6602 3.47583 27.6094 3.56567C27.5625 3.65161 27.5391 3.84692 27.5391 4.15161V7.96021C27.5391 8.27661 27.5625 8.4856 27.6094 8.58716C27.6562 8.68481 27.7461 8.73364 27.8789 8.73364C28.0312 8.73364 28.1328 8.67896 28.1836 8.56958C28.2344 8.4563 28.2598 8.18286 28.2598 7.74927V4.15161ZM33.5918 5.2063H31.3711V4.68481C31.3711 4.08325 31.4395 3.62036 31.5762 3.29614C31.7168 2.96802 31.9961 2.67896 32.4141 2.42896C32.832 2.17896 33.375 2.05396 34.043 2.05396C34.8438 2.05396 35.4473 2.19653 35.8535 2.48169C36.2598 2.76294 36.5039 3.1106 36.5859 3.52466C36.668 3.93481 36.709 4.78247 36.709 6.06763V9.96997H34.4062V9.27856C34.2617 9.55591 34.0742 9.76489 33.8438 9.90552C33.6172 10.0422 33.3457 10.1106 33.0293 10.1106C32.6152 10.1106 32.2344 9.99536 31.8867 9.76489C31.543 9.53052 31.3711 9.02075 31.3711 8.2356V7.59692C31.3711 7.01489 31.4629 6.61841 31.6465 6.40747C31.8301 6.19653 32.2852 5.95044 33.0117 5.66919C33.7891 5.3645 34.2051 5.15942 34.2598 5.05396C34.3145 4.94849 34.3418 4.73364 34.3418 4.40942C34.3418 4.00317 34.3105 3.7395 34.248 3.61841C34.1895 3.49341 34.0898 3.43091 33.9492 3.43091C33.7891 3.43091 33.6895 3.48364 33.6504 3.58911C33.6113 3.69067 33.5918 3.95825 33.5918 4.39185V5.2063ZM34.3418 6.27271C33.9629 6.55005 33.7422 6.78247 33.6797 6.96997C33.6211 7.15747 33.5918 7.427 33.5918 7.77856C33.5918 8.18091 33.6172 8.44067 33.668 8.55786C33.7227 8.67505 33.8281 8.73364 33.9844 8.73364C34.1328 8.73364 34.2285 8.68872 34.2715 8.59888C34.3184 8.50513 34.3418 8.26294 34.3418 7.87231V6.27271ZM39.9609 0.483643V1.71997H37.5234V0.483643H39.9609ZM39.9609 2.19458V9.96997H37.5234V2.19458H39.9609Z" fill="white"/>
</g>
<defs>
<clipPath id="clip0_1038_37">
<rect width="41" height="10" fill="white"/>
</clipPath>
</defs>
</svg>
