<svg width="77" height="39" viewBox="0 0 77 39" fill="none" xmlns="http://www.w3.org/2000/svg">
<g clip-path="url(#clip0_1042_94)">
<path d="M14.0391 0.394775V25.7542C14.0391 29.551 14 31.9963 13.9219 33.0901C13.8438 34.1682 13.4844 35.1448 12.8438 36.0198C12.2188 36.8948 11.3594 37.5042 10.2656 37.8479C9.1875 38.176 7.55469 38.3401 5.36719 38.3401H0.421875V31.7073C1.01562 31.7542 1.44531 31.7776 1.71094 31.7776C2.41406 31.7776 2.96875 31.6057 3.375 31.262C3.78125 30.9182 4.01562 30.4963 4.07812 29.9963C4.14062 29.4963 4.17188 28.5276 4.17188 27.0901V0.394775H14.0391ZM39 18.1604V25.7776C39 28.5745 38.8594 30.6292 38.5781 31.9417C38.2969 33.2385 37.6953 34.4573 36.7734 35.5979C35.8516 36.7229 34.6641 37.5588 33.2109 38.1057C31.7734 38.637 30.1172 38.9026 28.2422 38.9026C26.1484 38.9026 24.375 38.676 22.9219 38.2229C21.4688 37.7542 20.3359 37.0588 19.5234 36.137C18.7266 35.1995 18.1562 34.0745 17.8125 32.762C17.4688 31.4338 17.2969 29.4495 17.2969 26.8088V18.8401C17.2969 15.9495 17.6094 13.6917 18.2344 12.0667C18.8594 10.4417 19.9844 9.13696 21.6094 8.15259C23.2344 7.16821 25.3125 6.67603 27.8438 6.67603C29.9688 6.67603 31.7891 6.99634 33.3047 7.63696C34.8359 8.26196 36.0156 9.08228 36.8438 10.0979C37.6719 11.1135 38.2344 12.1604 38.5312 13.2385C38.8438 14.3167 39 15.9573 39 18.1604ZM29.5312 15.8167C29.5312 14.2229 29.4453 13.2229 29.2734 12.8167C29.1016 12.3948 28.7344 12.1838 28.1719 12.1838C27.6094 12.1838 27.2344 12.3948 27.0469 12.8167C26.8594 13.2229 26.7656 14.2229 26.7656 15.8167V29.8557C26.7656 31.3245 26.8594 32.2854 27.0469 32.7385C27.2344 33.176 27.6016 33.3948 28.1484 33.3948C28.7109 33.3948 29.0781 33.1917 29.25 32.7854C29.4375 32.3792 29.5312 31.5042 29.5312 30.1604V15.8167ZM51.8906 0.394775V5.34009H42.1406V0.394775H51.8906ZM51.8906 7.23853V38.3401H42.1406V7.23853H51.8906ZM64.9453 7.23853L64.7812 10.0979C65.4688 8.95728 66.3047 8.10571 67.2891 7.54321C68.2891 6.96509 69.4375 6.67603 70.7344 6.67603C72.3594 6.67603 73.6875 7.05884 74.7188 7.82446C75.75 8.59009 76.4141 9.55884 76.7109 10.7307C77.0078 11.887 77.1562 13.8245 77.1562 16.5432V38.3401H67.6875V16.801C67.6875 14.6604 67.6172 13.3557 67.4766 12.887C67.3359 12.4182 66.9453 12.1838 66.3047 12.1838C65.6328 12.1838 65.2109 12.4573 65.0391 13.0042C64.8672 13.5354 64.7812 14.9729 64.7812 17.3167V38.3401H55.3125V7.23853H64.9453Z" fill="white"/>
</g>
<defs>
<clipPath id="clip0_1042_94">
<rect width="77" height="39" fill="white"/>
</clipPath>
</defs>
</svg>
