<svg width="211" height="39" viewBox="0 0 211 39" fill="none" xmlns="http://www.w3.org/2000/svg">
<g clip-path="url(#clip0_1042_97)">
<path d="M23.4766 0.394775L17.8281 17.5276L24.0156 38.3401H13.8203L9.83594 22.0745V38.3401H-0.03125V0.394775H9.83594V15.137L14.2188 0.394775H23.4766ZM33.9297 19.2854H25.0469V17.1995C25.0469 14.7932 25.3203 12.9417 25.8672 11.6448C26.4297 10.3323 27.5469 9.17603 29.2188 8.17603C30.8906 7.17603 33.0625 6.67603 35.7344 6.67603C38.9375 6.67603 41.3516 7.24634 42.9766 8.38696C44.6016 9.51196 45.5781 10.9026 45.9062 12.5588C46.2344 14.1995 46.3984 17.5901 46.3984 22.7307V38.3401H37.1875V35.5745C36.6094 36.6838 35.8594 37.5198 34.9375 38.0823C34.0312 38.6292 32.9453 38.9026 31.6797 38.9026C30.0234 38.9026 28.5 38.4417 27.1094 37.5198C25.7344 36.5823 25.0469 34.5432 25.0469 31.4026V28.8479C25.0469 26.5198 25.4141 24.9338 26.1484 24.0901C26.8828 23.2463 28.7031 22.262 31.6094 21.137C34.7188 19.9182 36.3828 19.0979 36.6016 18.676C36.8203 18.2542 36.9297 17.3948 36.9297 16.0979C36.9297 14.4729 36.8047 13.4182 36.5547 12.9338C36.3203 12.4338 35.9219 12.1838 35.3594 12.1838C34.7188 12.1838 34.3203 12.3948 34.1641 12.8167C34.0078 13.2229 33.9297 14.2932 33.9297 16.0276V19.2854ZM36.9297 23.551C35.4141 24.6604 34.5312 25.5901 34.2812 26.3401C34.0469 27.0901 33.9297 28.1682 33.9297 29.5745C33.9297 31.1838 34.0312 32.2229 34.2344 32.6917C34.4531 33.1604 34.875 33.3948 35.5 33.3948C36.0938 33.3948 36.4766 33.2151 36.6484 32.8557C36.8359 32.4807 36.9297 31.512 36.9297 29.9495V23.551ZM71.1953 0.394775V38.3401H61.7266V36.0901C60.8203 37.0276 59.8672 37.7307 58.8672 38.1995C57.8672 38.6682 56.8203 38.9026 55.7266 38.9026C54.2578 38.9026 52.9844 38.5198 51.9062 37.7542C50.8281 36.9729 50.1328 36.0745 49.8203 35.0588C49.5234 34.0432 49.375 32.387 49.375 30.0901V15.5354C49.375 13.1448 49.5234 11.4495 49.8203 10.4495C50.1328 9.44946 50.8359 8.57446 51.9297 7.82446C53.0234 7.05884 54.3281 6.67603 55.8438 6.67603C57.0156 6.67603 58.0859 6.88696 59.0547 7.30884C60.0391 7.73071 60.9297 8.36353 61.7266 9.20728V0.394775H71.1953ZM61.7266 15.0667C61.7266 13.926 61.625 13.1604 61.4219 12.7698C61.2344 12.3792 60.8516 12.1838 60.2734 12.1838C59.7109 12.1838 59.3281 12.3635 59.125 12.7229C58.9375 13.0667 58.8438 13.8479 58.8438 15.0667V30.301C58.8438 31.5667 58.9375 32.4026 59.125 32.8088C59.3125 33.1995 59.6719 33.3948 60.2031 33.3948C60.8125 33.3948 61.2188 33.176 61.4219 32.7385C61.625 32.2854 61.7266 31.1917 61.7266 29.4573V15.0667ZM96.0156 18.1604V25.7776C96.0156 28.5745 95.875 30.6292 95.5938 31.9417C95.3125 33.2385 94.7109 34.4573 93.7891 35.5979C92.8672 36.7229 91.6797 37.5588 90.2266 38.1057C88.7891 38.637 87.1328 38.9026 85.2578 38.9026C83.1641 38.9026 81.3906 38.676 79.9375 38.2229C78.4844 37.7542 77.3516 37.0588 76.5391 36.137C75.7422 35.1995 75.1719 34.0745 74.8281 32.762C74.4844 31.4338 74.3125 29.4495 74.3125 26.8088V18.8401C74.3125 15.9495 74.625 13.6917 75.25 12.0667C75.875 10.4417 77 9.13696 78.625 8.15259C80.25 7.16821 82.3281 6.67603 84.8594 6.67603C86.9844 6.67603 88.8047 6.99634 90.3203 7.63696C91.8516 8.26196 93.0312 9.08228 93.8594 10.0979C94.6875 11.1135 95.25 12.1604 95.5469 13.2385C95.8594 14.3167 96.0156 15.9573 96.0156 18.1604ZM86.5469 15.8167C86.5469 14.2229 86.4609 13.2229 86.2891 12.8167C86.1172 12.3948 85.75 12.1838 85.1875 12.1838C84.625 12.1838 84.25 12.3948 84.0625 12.8167C83.875 13.2229 83.7812 14.2229 83.7812 15.8167V29.8557C83.7812 31.3245 83.875 32.2854 84.0625 32.7385C84.25 33.176 84.6172 33.3948 85.1641 33.3948C85.7266 33.3948 86.0938 33.1917 86.2656 32.7854C86.4531 32.3792 86.5469 31.5042 86.5469 30.1604V15.8167ZM127.797 0.394775V7.98853H121.938V38.3401H112.07V7.98853H106.234V0.394775H127.797ZM149.195 23.3401H136.938V30.0667C136.938 31.4729 137.039 32.3792 137.242 32.7854C137.445 33.1917 137.836 33.3948 138.414 33.3948C139.133 33.3948 139.609 33.1292 139.844 32.5979C140.094 32.051 140.219 31.0042 140.219 29.4573V25.3557H149.195V27.6526C149.195 29.5745 149.07 31.051 148.82 32.0823C148.586 33.1135 148.023 34.2151 147.133 35.387C146.242 36.5588 145.109 37.4417 143.734 38.0354C142.375 38.6135 140.664 38.9026 138.602 38.9026C136.602 38.9026 134.836 38.6135 133.305 38.0354C131.773 37.4573 130.578 36.6682 129.719 35.6682C128.875 34.6526 128.289 33.5432 127.961 32.3401C127.633 31.1213 127.469 29.3557 127.469 27.0432V17.9729C127.469 15.2542 127.836 13.1135 128.57 11.551C129.305 9.9729 130.508 8.76978 132.18 7.94165C133.852 7.0979 135.773 6.67603 137.945 6.67603C140.602 6.67603 142.789 7.18384 144.508 8.19946C146.242 9.19946 147.453 10.5354 148.141 12.2073C148.844 13.8635 149.195 16.1995 149.195 19.2151V23.3401ZM139.703 18.2776V16.0042C139.703 14.3948 139.617 13.3557 139.445 12.887C139.273 12.4182 138.922 12.1838 138.391 12.1838C137.734 12.1838 137.328 12.387 137.172 12.7932C137.016 13.1838 136.938 14.2542 136.938 16.0042V18.2776H139.703ZM160.773 19.2854H151.891V17.1995C151.891 14.7932 152.164 12.9417 152.711 11.6448C153.273 10.3323 154.391 9.17603 156.062 8.17603C157.734 7.17603 159.906 6.67603 162.578 6.67603C165.781 6.67603 168.195 7.24634 169.82 8.38696C171.445 9.51196 172.422 10.9026 172.75 12.5588C173.078 14.1995 173.242 17.5901 173.242 22.7307V38.3401H164.031V35.5745C163.453 36.6838 162.703 37.5198 161.781 38.0823C160.875 38.6292 159.789 38.9026 158.523 38.9026C156.867 38.9026 155.344 38.4417 153.953 37.5198C152.578 36.5823 151.891 34.5432 151.891 31.4026V28.8479C151.891 26.5198 152.258 24.9338 152.992 24.0901C153.727 23.2463 155.547 22.262 158.453 21.137C161.562 19.9182 163.227 19.0979 163.445 18.676C163.664 18.2542 163.773 17.3948 163.773 16.0979C163.773 14.4729 163.648 13.4182 163.398 12.9338C163.164 12.4338 162.766 12.1838 162.203 12.1838C161.562 12.1838 161.164 12.3948 161.008 12.8167C160.852 13.2229 160.773 14.2932 160.773 16.0276V19.2854ZM163.773 23.551C162.258 24.6604 161.375 25.5901 161.125 26.3401C160.891 27.0901 160.773 28.1682 160.773 29.5745C160.773 31.1838 160.875 32.2229 161.078 32.6917C161.297 33.1604 161.719 33.3948 162.344 33.3948C162.938 33.3948 163.32 33.2151 163.492 32.8557C163.68 32.4807 163.773 31.512 163.773 29.9495V23.551ZM185.852 7.23853L185.688 10.1917C186.422 9.01978 187.297 8.14478 188.312 7.56665C189.328 6.9729 190.484 6.67603 191.781 6.67603C194.312 6.67603 196.305 7.8479 197.758 10.1917C198.555 9.01978 199.453 8.14478 200.453 7.56665C201.453 6.9729 202.562 6.67603 203.781 6.67603C205.391 6.67603 206.719 7.06665 207.766 7.8479C208.828 8.62915 209.508 9.59009 209.805 10.7307C210.102 11.8557 210.25 13.6917 210.25 16.2385V38.3401H201.062V18.0667C201.062 15.4104 200.969 13.7698 200.781 13.1448C200.609 12.5042 200.195 12.1838 199.539 12.1838C198.867 12.1838 198.43 12.4963 198.227 13.1213C198.039 13.7463 197.945 15.3948 197.945 18.0667V38.3401H188.758V18.5823C188.758 15.5354 188.68 13.7073 188.523 13.0979C188.383 12.4885 187.977 12.1838 187.305 12.1838C186.883 12.1838 186.523 12.3479 186.227 12.676C185.93 12.9885 185.766 13.3792 185.734 13.8479C185.703 14.301 185.688 15.2776 185.688 16.7776V38.3401H176.5V7.23853H185.852Z" fill="white"/>
</g>
<defs>
<clipPath id="clip0_1042_97">
<rect width="211" height="39" fill="white"/>
</clipPath>
</defs>
</svg>
