<svg width="28" height="11" viewBox="0 0 28 11" fill="none" xmlns="http://www.w3.org/2000/svg">
<g clip-path="url(#clip0_1042_100)">
<path d="M2.95898 0.00366211V7.59155H4.45898V9.48999H0.492188V0.00366211H2.95898ZM10.3477 4.44507V6.34937C10.3477 7.04858 10.3125 7.56226 10.2422 7.89038C10.1719 8.2146 10.0215 8.51929 9.79102 8.80444C9.56055 9.08569 9.26367 9.29468 8.90039 9.4314C8.54102 9.56421 8.12695 9.63062 7.6582 9.63062C7.13477 9.63062 6.69141 9.57397 6.32812 9.46069C5.96484 9.34351 5.68164 9.16968 5.47852 8.93921C5.2793 8.70483 5.13672 8.42358 5.05078 8.09546C4.96484 7.76343 4.92188 7.26733 4.92188 6.60718V4.61499C4.92188 3.89233 5 3.32788 5.15625 2.92163C5.3125 2.51538 5.59375 2.18921 6 1.94312C6.40625 1.69702 6.92578 1.57397 7.55859 1.57397C8.08984 1.57397 8.54492 1.65405 8.92383 1.81421C9.30664 1.97046 9.60156 2.17554 9.80859 2.42944C10.0156 2.68335 10.1562 2.94507 10.2305 3.2146C10.3086 3.48413 10.3477 3.89429 10.3477 4.44507ZM7.98047 3.85913C7.98047 3.46069 7.95898 3.21069 7.91602 3.10913C7.87305 3.00366 7.78125 2.95093 7.64062 2.95093C7.5 2.95093 7.40625 3.00366 7.35938 3.10913C7.3125 3.21069 7.28906 3.46069 7.28906 3.85913V7.3689C7.28906 7.73608 7.3125 7.97632 7.35938 8.0896C7.40625 8.19897 7.49805 8.25366 7.63477 8.25366C7.77539 8.25366 7.86719 8.20288 7.91016 8.10132C7.95703 7.99976 7.98047 7.78101 7.98047 7.44507V3.85913ZM16.5117 1.7146V7.70288C16.5117 8.51147 16.4922 9.03491 16.4531 9.27319C16.418 9.50757 16.2871 9.75562 16.0605 10.0173C15.834 10.283 15.5176 10.4841 15.1113 10.6208C14.709 10.7615 14.2012 10.8318 13.5879 10.8318C12.834 10.8318 12.2285 10.7029 11.7715 10.4451C11.3145 10.1912 11.0781 9.68921 11.0625 8.93921H13.3594C13.3594 9.28296 13.4844 9.45483 13.7344 9.45483C13.9141 9.45483 14.0332 9.4021 14.0918 9.29663C14.1504 9.19116 14.1797 8.97046 14.1797 8.63452V8.04858C13.9766 8.23218 13.7617 8.37085 13.5352 8.4646C13.3125 8.55835 13.0781 8.60522 12.832 8.60522C12.4062 8.60522 12.0547 8.51929 11.7773 8.34741C11.5039 8.17554 11.3164 7.95093 11.2148 7.67358C11.1133 7.39233 11.0625 6.9939 11.0625 6.47827V3.65405C11.0625 2.91577 11.1953 2.38452 11.4609 2.0603C11.7266 1.73608 12.1309 1.57397 12.6738 1.57397C12.9707 1.57397 13.2402 1.63452 13.4824 1.75562C13.7285 1.87671 13.9473 2.05835 14.1387 2.30054L14.3086 1.7146H16.5117ZM14.1387 3.7771C14.1387 3.42163 14.1172 3.19507 14.0742 3.09741C14.0352 2.99976 13.9453 2.95093 13.8047 2.95093C13.668 2.95093 13.5703 3.00757 13.5117 3.12085C13.457 3.23022 13.4297 3.44897 13.4297 3.7771V6.39038C13.4297 6.73804 13.4512 6.9646 13.4941 7.07007C13.5371 7.17163 13.627 7.22241 13.7637 7.22241C13.9199 7.22241 14.0215 7.15991 14.0684 7.03491C14.1152 6.90991 14.1387 6.62671 14.1387 6.1853V3.7771ZM21.9141 0.00366211V1.23999H19.4766V0.00366211H21.9141ZM21.9141 1.7146V9.48999H19.4766V1.7146H21.9141ZM25.1777 1.7146L25.1367 2.42944C25.3086 2.14429 25.5176 1.9314 25.7637 1.79077C26.0137 1.64624 26.3008 1.57397 26.625 1.57397C27.0312 1.57397 27.3633 1.66968 27.6211 1.86108C27.8789 2.05249 28.0449 2.29468 28.1191 2.58765C28.1934 2.87671 28.2305 3.36108 28.2305 4.04077V9.48999H25.8633V4.10522C25.8633 3.57007 25.8457 3.2439 25.8105 3.12671C25.7754 3.00952 25.6777 2.95093 25.5176 2.95093C25.3496 2.95093 25.2441 3.01929 25.2012 3.15601C25.1582 3.28882 25.1367 3.64819 25.1367 4.23413V9.48999H22.7695V1.7146H25.1777Z" fill="#080304"/>
</g>
<defs>
<clipPath id="clip0_1042_100">
<rect width="28" height="11" fill="white"/>
</clipPath>
</defs>
</svg>
