<svg width="47" height="11" viewBox="0 0 47 11" fill="none" xmlns="http://www.w3.org/2000/svg">
<g clip-path="url(#clip0_1042_106)">
<path d="M8.10352 0.483643V9.96997H5.94727V3.56567L5.08594 9.96997H3.55664L2.64844 3.71216V9.96997H0.492188V0.483643H3.68555C3.7793 1.05396 3.87891 1.72583 3.98438 2.49927L4.32422 4.91333L4.88672 0.483643H8.10352ZM14.3848 6.21997H11.3203V7.90161C11.3203 8.25317 11.3457 8.47974 11.3965 8.5813C11.4473 8.68286 11.5449 8.73364 11.6895 8.73364C11.8691 8.73364 11.9883 8.66724 12.0469 8.53442C12.1094 8.39771 12.1406 8.13599 12.1406 7.74927V6.72388H14.3848V7.2981C14.3848 7.77856 14.3535 8.14771 14.291 8.40552C14.2324 8.66333 14.0918 8.93872 13.8691 9.23169C13.6465 9.52466 13.3633 9.74536 13.0195 9.8938C12.6797 10.0383 12.252 10.1106 11.7363 10.1106C11.2363 10.1106 10.7949 10.0383 10.4121 9.8938C10.0293 9.74927 9.73047 9.552 9.51562 9.302C9.30469 9.0481 9.1582 8.77075 9.07617 8.46997C8.99414 8.16528 8.95312 7.72388 8.95312 7.14575V4.87817C8.95312 4.19849 9.04492 3.66333 9.22852 3.27271C9.41211 2.87817 9.71289 2.57739 10.1309 2.37036C10.5488 2.15942 11.0293 2.05396 11.5723 2.05396C12.2363 2.05396 12.7832 2.18091 13.2129 2.43481C13.6465 2.68481 13.9492 3.0188 14.1211 3.43677C14.2969 3.85083 14.3848 4.43481 14.3848 5.18872V6.21997ZM12.0117 4.95435V4.38599C12.0117 3.98364 11.9902 3.72388 11.9473 3.60669C11.9043 3.4895 11.8164 3.43091 11.6836 3.43091C11.5195 3.43091 11.418 3.48169 11.3789 3.58325C11.3398 3.68091 11.3203 3.94849 11.3203 4.38599V4.95435H12.0117ZM17.502 2.19458L17.4609 2.93286C17.6445 2.63989 17.8633 2.42114 18.1172 2.27661C18.3711 2.12817 18.6602 2.05396 18.9844 2.05396C19.6172 2.05396 20.1152 2.34692 20.4785 2.93286C20.6777 2.63989 20.9023 2.42114 21.1523 2.27661C21.4023 2.12817 21.6797 2.05396 21.9844 2.05396C22.3867 2.05396 22.7188 2.15161 22.9805 2.34692C23.2461 2.54224 23.416 2.78247 23.4902 3.06763C23.5645 3.34888 23.6016 3.80786 23.6016 4.44458V9.96997H21.3047V4.90161C21.3047 4.23755 21.2812 3.82739 21.2344 3.67114C21.1914 3.51099 21.0879 3.43091 20.9238 3.43091C20.7559 3.43091 20.6465 3.50903 20.5957 3.66528C20.5488 3.82153 20.5254 4.23364 20.5254 4.90161V9.96997H18.2285V5.03052C18.2285 4.2688 18.209 3.81177 18.1699 3.65942C18.1348 3.50708 18.0332 3.43091 17.8652 3.43091C17.7598 3.43091 17.6699 3.47192 17.5957 3.55396C17.5215 3.63208 17.4805 3.72974 17.4727 3.84692C17.4648 3.96021 17.4609 4.20435 17.4609 4.57935V9.96997H15.1641V2.19458H17.502ZM26.7891 0.483643V2.72778C26.9844 2.50122 27.2012 2.33325 27.4395 2.22388C27.6816 2.1106 27.9434 2.05396 28.2246 2.05396C28.5488 2.05396 28.8301 2.10474 29.0684 2.2063C29.3066 2.30786 29.4883 2.45044 29.6133 2.63403C29.7383 2.81763 29.8125 2.99731 29.8359 3.1731C29.8633 3.34888 29.877 3.72388 29.877 4.2981V7.802C29.877 8.37231 29.8379 8.7981 29.7598 9.07935C29.6855 9.35669 29.5078 9.59888 29.2266 9.80591C28.9453 10.009 28.6113 10.1106 28.2246 10.1106C27.9473 10.1106 27.6875 10.05 27.4453 9.92896C27.207 9.80786 26.9883 9.62622 26.7891 9.38403L26.6367 9.96997H24.4219V0.483643H26.7891ZM27.5098 4.40356C27.5098 4.00122 27.4844 3.7395 27.4336 3.61841C27.3828 3.49341 27.2832 3.43091 27.1348 3.43091C26.9902 3.43091 26.8965 3.4856 26.8535 3.59497C26.8105 3.70044 26.7891 3.96997 26.7891 4.40356V7.75513C26.7891 8.1731 26.8125 8.44067 26.8594 8.55786C26.9102 8.67505 27.0078 8.73364 27.1523 8.73364C27.3008 8.73364 27.3965 8.6731 27.4395 8.552C27.4863 8.43091 27.5098 8.13989 27.5098 7.67896V4.40356ZM36.0176 6.21997H32.9531V7.90161C32.9531 8.25317 32.9785 8.47974 33.0293 8.5813C33.0801 8.68286 33.1777 8.73364 33.3223 8.73364C33.502 8.73364 33.6211 8.66724 33.6797 8.53442C33.7422 8.39771 33.7734 8.13599 33.7734 7.74927V6.72388H36.0176V7.2981C36.0176 7.77856 35.9863 8.14771 35.9238 8.40552C35.8652 8.66333 35.7246 8.93872 35.502 9.23169C35.2793 9.52466 34.9961 9.74536 34.6523 9.8938C34.3125 10.0383 33.8848 10.1106 33.3691 10.1106C32.8691 10.1106 32.4277 10.0383 32.0449 9.8938C31.6621 9.74927 31.3633 9.552 31.1484 9.302C30.9375 9.0481 30.791 8.77075 30.709 8.46997C30.627 8.16528 30.5859 7.72388 30.5859 7.14575V4.87817C30.5859 4.19849 30.6777 3.66333 30.8613 3.27271C31.0449 2.87817 31.3457 2.57739 31.7637 2.37036C32.1816 2.15942 32.6621 2.05396 33.2051 2.05396C33.8691 2.05396 34.416 2.18091 34.8457 2.43481C35.2793 2.68481 35.582 3.0188 35.7539 3.43677C35.9297 3.85083 36.0176 4.43481 36.0176 5.18872V6.21997ZM33.6445 4.95435V4.38599C33.6445 3.98364 33.623 3.72388 33.5801 3.60669C33.5371 3.4895 33.4492 3.43091 33.3164 3.43091C33.1523 3.43091 33.0508 3.48169 33.0117 3.58325C32.9727 3.68091 32.9531 3.94849 32.9531 4.38599V4.95435H33.6445ZM39.1641 2.19458L39.0703 3.21411C39.4141 2.48364 39.9121 2.09692 40.5645 2.05396V4.79028C40.1309 4.79028 39.8125 4.84888 39.6094 4.96606C39.4062 5.08325 39.2812 5.24731 39.2344 5.45825C39.1875 5.66528 39.1641 6.14575 39.1641 6.89966V9.96997H36.7969V2.19458H39.1641ZM45.9316 4.67896H43.834V4.25708C43.834 3.89771 43.8125 3.67114 43.7695 3.57739C43.7305 3.47974 43.6289 3.43091 43.4648 3.43091C43.332 3.43091 43.2324 3.47583 43.166 3.56567C43.0996 3.65161 43.0664 3.78247 43.0664 3.95825C43.0664 4.19653 43.082 4.37231 43.1133 4.4856C43.1484 4.59497 43.248 4.71606 43.4121 4.84888C43.5801 4.98169 43.9219 5.17505 44.4375 5.42896C45.125 5.76489 45.5762 6.0813 45.791 6.37817C46.0059 6.67505 46.1133 7.10669 46.1133 7.6731C46.1133 8.30591 46.0312 8.78442 45.8672 9.10864C45.7031 9.42896 45.4277 9.677 45.041 9.85278C44.6582 10.0247 44.1953 10.1106 43.6523 10.1106C43.0508 10.1106 42.5352 10.0168 42.1055 9.82935C41.6797 9.64185 41.3867 9.38794 41.2266 9.06763C41.0664 8.74731 40.9863 8.26294 40.9863 7.6145V7.2395H43.084V7.73169C43.084 8.14966 43.1094 8.42114 43.1602 8.54614C43.2148 8.67114 43.3203 8.73364 43.4766 8.73364C43.6445 8.73364 43.7617 8.69263 43.8281 8.6106C43.8945 8.52466 43.9277 8.34692 43.9277 8.07739C43.9277 7.7063 43.8848 7.47388 43.7988 7.38013C43.709 7.28638 43.25 7.00903 42.4219 6.5481C41.7266 6.15747 41.3027 5.80396 41.1504 5.48755C40.998 5.16724 40.9219 4.78833 40.9219 4.35083C40.9219 3.72974 41.0039 3.27271 41.168 2.97974C41.332 2.68286 41.6094 2.45435 42 2.29419C42.3945 2.13403 42.8516 2.05396 43.3711 2.05396C43.8867 2.05396 44.3242 2.12036 44.6836 2.25317C45.0469 2.38208 45.3242 2.55396 45.5156 2.7688C45.7109 2.98364 45.8281 3.18286 45.8672 3.36646C45.9102 3.55005 45.9316 3.83716 45.9316 4.22778V4.67896Z" fill="white"/>
</g>
<defs>
<clipPath id="clip0_1042_106">
<rect width="47" height="11" fill="white"/>
</clipPath>
</defs>
</svg>
