<svg width="27" height="11" viewBox="0 0 27 11" fill="none" xmlns="http://www.w3.org/2000/svg">
<g clip-path="url(#clip0_1042_122)">
<path d="M0.492188 0.743652H2.97656C3.64844 0.743652 4.16406 0.796387 4.52344 0.901855C4.88672 1.00732 5.1582 1.15967 5.33789 1.35889C5.52148 1.55811 5.64453 1.80029 5.70703 2.08545C5.77344 2.3667 5.80664 2.8042 5.80664 3.39795V4.22412C5.80664 4.82959 5.74414 5.271 5.61914 5.54834C5.49414 5.82568 5.26367 6.03857 4.92773 6.18701C4.5957 6.33545 4.16016 6.40967 3.62109 6.40967H2.95898V10.23H0.492188V0.743652ZM2.95898 2.3667V4.78076C3.0293 4.78467 3.08984 4.78662 3.14062 4.78662C3.36719 4.78662 3.52344 4.73193 3.60938 4.62256C3.69922 4.50928 3.74414 4.27686 3.74414 3.92529V3.146C3.74414 2.82178 3.69336 2.61084 3.5918 2.51318C3.49023 2.41553 3.2793 2.3667 2.95898 2.3667ZM11.8008 5.18506V7.08936C11.8008 7.78857 11.7656 8.30225 11.6953 8.63037C11.625 8.95459 11.4746 9.25928 11.2441 9.54443C11.0137 9.82568 10.7168 10.0347 10.3535 10.1714C9.99414 10.3042 9.58008 10.3706 9.11133 10.3706C8.58789 10.3706 8.14453 10.314 7.78125 10.2007C7.41797 10.0835 7.13477 9.90967 6.93164 9.6792C6.73242 9.44482 6.58984 9.16357 6.50391 8.83545C6.41797 8.50342 6.375 8.00732 6.375 7.34717V5.35498C6.375 4.63232 6.45312 4.06787 6.60938 3.66162C6.76562 3.25537 7.04688 2.9292 7.45312 2.68311C7.85938 2.43701 8.37891 2.31396 9.01172 2.31396C9.54297 2.31396 9.99805 2.39404 10.377 2.5542C10.7598 2.71045 11.0547 2.91553 11.2617 3.16943C11.4688 3.42334 11.6094 3.68506 11.6836 3.95459C11.7617 4.22412 11.8008 4.63428 11.8008 5.18506ZM9.43359 4.59912C9.43359 4.20068 9.41211 3.95068 9.36914 3.84912C9.32617 3.74365 9.23438 3.69092 9.09375 3.69092C8.95312 3.69092 8.85938 3.74365 8.8125 3.84912C8.76562 3.95068 8.74219 4.20068 8.74219 4.59912V8.10889C8.74219 8.47607 8.76562 8.71631 8.8125 8.82959C8.85938 8.93896 8.95117 8.99365 9.08789 8.99365C9.22852 8.99365 9.32031 8.94287 9.36328 8.84131C9.41016 8.73975 9.43359 8.521 9.43359 8.18506V4.59912ZM17.4199 4.93896H15.3223V4.51709C15.3223 4.15771 15.3008 3.93115 15.2578 3.8374C15.2188 3.73975 15.1172 3.69092 14.9531 3.69092C14.8203 3.69092 14.7207 3.73584 14.6543 3.82568C14.5879 3.91162 14.5547 4.04248 14.5547 4.21826C14.5547 4.45654 14.5703 4.63232 14.6016 4.74561C14.6367 4.85498 14.7363 4.97607 14.9004 5.10889C15.0684 5.2417 15.4102 5.43506 15.9258 5.68896C16.6133 6.0249 17.0645 6.34131 17.2793 6.63818C17.4941 6.93506 17.6016 7.3667 17.6016 7.93311C17.6016 8.56592 17.5195 9.04443 17.3555 9.36865C17.1914 9.68896 16.916 9.93701 16.5293 10.1128C16.1465 10.2847 15.6836 10.3706 15.1406 10.3706C14.5391 10.3706 14.0234 10.2769 13.5938 10.0894C13.168 9.90186 12.875 9.64795 12.7148 9.32764C12.5547 9.00732 12.4746 8.52295 12.4746 7.87451V7.49951H14.5723V7.9917C14.5723 8.40967 14.5977 8.68115 14.6484 8.80615C14.7031 8.93115 14.8086 8.99365 14.9648 8.99365C15.1328 8.99365 15.25 8.95264 15.3164 8.87061C15.3828 8.78467 15.416 8.60693 15.416 8.3374C15.416 7.96631 15.373 7.73389 15.2871 7.64014C15.1973 7.54639 14.7383 7.26904 13.9102 6.80811C13.2148 6.41748 12.791 6.06396 12.6387 5.74756C12.4863 5.42725 12.4102 5.04834 12.4102 4.61084C12.4102 3.98975 12.4922 3.53271 12.6562 3.23975C12.8203 2.94287 13.0977 2.71436 13.4883 2.5542C13.8828 2.39404 14.3398 2.31396 14.8594 2.31396C15.375 2.31396 15.8125 2.38037 16.1719 2.51318C16.5352 2.64209 16.8125 2.81396 17.0039 3.02881C17.1992 3.24365 17.3164 3.44287 17.3555 3.62646C17.3984 3.81006 17.4199 4.09717 17.4199 4.48779V4.93896ZM20.7305 1.41748V2.64209H21.3691V3.87256H20.7305V8.03271C20.7305 8.54443 20.7559 8.82959 20.8066 8.88818C20.8613 8.94678 21.082 8.97607 21.4688 8.97607V10.23H20.5137C19.9746 10.23 19.5898 10.2085 19.3594 10.1655C19.1289 10.1187 18.9258 10.0151 18.75 9.85498C18.5742 9.69092 18.4648 9.50537 18.4219 9.29834C18.3789 9.0874 18.3574 8.59521 18.3574 7.82178V3.87256H17.8477V2.64209H18.3574V1.41748H20.7305ZM26.7246 4.93896H24.627V4.51709C24.627 4.15771 24.6055 3.93115 24.5625 3.8374C24.5234 3.73975 24.4219 3.69092 24.2578 3.69092C24.125 3.69092 24.0254 3.73584 23.959 3.82568C23.8926 3.91162 23.8594 4.04248 23.8594 4.21826C23.8594 4.45654 23.875 4.63232 23.9062 4.74561C23.9414 4.85498 24.041 4.97607 24.2051 5.10889C24.373 5.2417 24.7148 5.43506 25.2305 5.68896C25.918 6.0249 26.3691 6.34131 26.584 6.63818C26.7988 6.93506 26.9062 7.3667 26.9062 7.93311C26.9062 8.56592 26.8242 9.04443 26.6602 9.36865C26.4961 9.68896 26.2207 9.93701 25.834 10.1128C25.4512 10.2847 24.9883 10.3706 24.4453 10.3706C23.8438 10.3706 23.3281 10.2769 22.8984 10.0894C22.4727 9.90186 22.1797 9.64795 22.0195 9.32764C21.8594 9.00732 21.7793 8.52295 21.7793 7.87451V7.49951H23.877V7.9917C23.877 8.40967 23.9023 8.68115 23.9531 8.80615C24.0078 8.93115 24.1133 8.99365 24.2695 8.99365C24.4375 8.99365 24.5547 8.95264 24.6211 8.87061C24.6875 8.78467 24.7207 8.60693 24.7207 8.3374C24.7207 7.96631 24.6777 7.73389 24.5918 7.64014C24.502 7.54639 24.043 7.26904 23.2148 6.80811C22.5195 6.41748 22.0957 6.06396 21.9434 5.74756C21.791 5.42725 21.7148 5.04834 21.7148 4.61084C21.7148 3.98975 21.7969 3.53271 21.9609 3.23975C22.125 2.94287 22.4023 2.71436 22.793 2.5542C23.1875 2.39404 23.6445 2.31396 24.1641 2.31396C24.6797 2.31396 25.1172 2.38037 25.4766 2.51318C25.8398 2.64209 26.1172 2.81396 26.3086 3.02881C26.5039 3.24365 26.6211 3.44287 26.6602 3.62646C26.7031 3.81006 26.7246 4.09717 26.7246 4.48779V4.93896Z" fill="#D37D74"/>
</g>
<defs>
<clipPath id="clip0_1042_122">
<rect width="27" height="11" fill="white"/>
</clipPath>
</defs>
</svg>
