<svg width="28" height="11" viewBox="0 0 28 11" fill="none" xmlns="http://www.w3.org/2000/svg">
<g clip-path="url(#clip0_1042_160)">
<path d="M5.71875 3.87476H3.42773V3.17163C3.42773 2.84351 3.39844 2.63452 3.33984 2.54468C3.28125 2.45483 3.18359 2.40991 3.04688 2.40991C2.89844 2.40991 2.78516 2.47046 2.70703 2.59155C2.63281 2.71265 2.5957 2.89624 2.5957 3.14233C2.5957 3.45874 2.63867 3.69702 2.72461 3.85718C2.80664 4.01733 3.03906 4.21069 3.42188 4.43726C4.51953 5.0896 5.21094 5.62476 5.49609 6.04272C5.78125 6.46069 5.92383 7.13452 5.92383 8.06421C5.92383 8.73999 5.84375 9.23804 5.68359 9.55835C5.52734 9.87866 5.22266 10.1482 4.76953 10.3669C4.31641 10.5818 3.78906 10.6892 3.1875 10.6892C2.52734 10.6892 1.96289 10.5642 1.49414 10.3142C1.0293 10.0642 0.724609 9.74585 0.580078 9.35913C0.435547 8.97241 0.363281 8.42358 0.363281 7.71265V7.09155H2.6543V8.24585C2.6543 8.60132 2.68555 8.82983 2.74805 8.9314C2.81445 9.03296 2.92969 9.08374 3.09375 9.08374C3.25781 9.08374 3.37891 9.01929 3.45703 8.89038C3.53906 8.76147 3.58008 8.57007 3.58008 8.31616C3.58008 7.75757 3.50391 7.39233 3.35156 7.22046C3.19531 7.04858 2.81055 6.76147 2.19727 6.35913C1.58398 5.95288 1.17773 5.65796 0.978516 5.47437C0.779297 5.29077 0.613281 5.03687 0.480469 4.71265C0.351562 4.38843 0.287109 3.97437 0.287109 3.47046C0.287109 2.7439 0.378906 2.21265 0.5625 1.87671C0.75 1.54077 1.05078 1.27905 1.46484 1.09155C1.87891 0.900146 2.37891 0.804443 2.96484 0.804443C3.60547 0.804443 4.15039 0.907959 4.59961 1.11499C5.05273 1.32202 5.35156 1.58374 5.49609 1.90015C5.64453 2.21265 5.71875 2.74585 5.71875 3.49976V3.87476ZM11.7305 2.7146L10.7695 5.81421L12.0176 10.49H9.73828L9 7.10327V10.49H6.63281V1.00366H9V4.98804L9.73828 2.7146H11.7305ZM14.8125 1.00366V2.23999H12.375V1.00366H14.8125ZM14.8125 2.7146V10.49H12.375V2.7146H14.8125ZM18.1055 1.00366V10.49H15.668V1.00366H18.1055ZM21.3984 1.00366V10.49H18.9609V1.00366H21.3984ZM27.0879 5.19897H24.9902V4.7771C24.9902 4.41772 24.9688 4.19116 24.9258 4.09741C24.8867 3.99976 24.7852 3.95093 24.6211 3.95093C24.4883 3.95093 24.3887 3.99585 24.3223 4.08569C24.2559 4.17163 24.2227 4.30249 24.2227 4.47827C24.2227 4.71655 24.2383 4.89233 24.2695 5.00562C24.3047 5.11499 24.4043 5.23608 24.5684 5.3689C24.7363 5.50171 25.0781 5.69507 25.5938 5.94897C26.2812 6.28491 26.7324 6.60132 26.9473 6.89819C27.1621 7.19507 27.2695 7.62671 27.2695 8.19312C27.2695 8.82593 27.1875 9.30444 27.0234 9.62866C26.8594 9.94897 26.584 10.197 26.1973 10.3728C25.8145 10.5447 25.3516 10.6306 24.8086 10.6306C24.207 10.6306 23.6914 10.5369 23.2617 10.3494C22.8359 10.1619 22.543 9.90796 22.3828 9.58765C22.2227 9.26733 22.1426 8.78296 22.1426 8.13452V7.75952H24.2402V8.25171C24.2402 8.66968 24.2656 8.94116 24.3164 9.06616C24.3711 9.19116 24.4766 9.25366 24.6328 9.25366C24.8008 9.25366 24.918 9.21265 24.9844 9.13062C25.0508 9.04468 25.084 8.86694 25.084 8.59741C25.084 8.22632 25.041 7.9939 24.9551 7.90015C24.8652 7.8064 24.4062 7.52905 23.5781 7.06812C22.8828 6.67749 22.459 6.32397 22.3066 6.00757C22.1543 5.68726 22.0781 5.30835 22.0781 4.87085C22.0781 4.24976 22.1602 3.79272 22.3242 3.49976C22.4883 3.20288 22.7656 2.97437 23.1562 2.81421C23.5508 2.65405 24.0078 2.57397 24.5273 2.57397C25.043 2.57397 25.4805 2.64038 25.8398 2.77319C26.2031 2.9021 26.4805 3.07397 26.6719 3.28882C26.8672 3.50366 26.9844 3.70288 27.0234 3.88647C27.0664 4.07007 27.0879 4.35718 27.0879 4.7478V5.19897Z" fill="#D37D74"/>
</g>
<defs>
<clipPath id="clip0_1042_160">
<rect width="28" height="11" fill="white"/>
</clipPath>
</defs>
</svg>
