<svg width="68" height="10" viewBox="0 0 68 10" fill="none" xmlns="http://www.w3.org/2000/svg">
<g clip-path="url(#clip0_1042_91)">
<path d="M6.4917 0.00366211L5.23779 9.48999H1.49365L0.0698242 0.00366211H2.67139C2.97217 2.61694 3.18701 4.82593 3.31592 6.63062C3.44482 4.8064 3.57959 3.1853 3.72021 1.76733L3.89014 0.00366211H6.4917ZM9.28076 0.00366211V1.23999H6.84326V0.00366211H9.28076ZM9.28076 1.7146V9.48999H6.84326V1.7146H9.28076ZM15.4976 5.73999H12.4331V7.42163C12.4331 7.77319 12.4585 7.99976 12.5093 8.10132C12.5601 8.20288 12.6577 8.25366 12.8022 8.25366C12.9819 8.25366 13.1011 8.18726 13.1597 8.05444C13.2222 7.91772 13.2534 7.65601 13.2534 7.26929V6.2439H15.4976V6.81812C15.4976 7.29858 15.4663 7.66772 15.4038 7.92554C15.3452 8.18335 15.2046 8.45874 14.9819 8.75171C14.7593 9.04468 14.4761 9.26538 14.1323 9.41382C13.7925 9.55835 13.3647 9.63062 12.8491 9.63062C12.3491 9.63062 11.9077 9.55835 11.5249 9.41382C11.1421 9.26929 10.8433 9.07202 10.6284 8.82202C10.4175 8.56812 10.271 8.29077 10.189 7.98999C10.1069 7.6853 10.0659 7.2439 10.0659 6.66577V4.39819C10.0659 3.71851 10.1577 3.18335 10.3413 2.79272C10.5249 2.39819 10.8257 2.09741 11.2437 1.89038C11.6616 1.67944 12.1421 1.57397 12.6851 1.57397C13.3491 1.57397 13.896 1.70093 14.3257 1.95483C14.7593 2.20483 15.062 2.53882 15.2339 2.95679C15.4097 3.37085 15.4976 3.95483 15.4976 4.70874V5.73999ZM13.1245 4.47437V3.90601C13.1245 3.50366 13.103 3.2439 13.0601 3.12671C13.0171 3.00952 12.9292 2.95093 12.7964 2.95093C12.6323 2.95093 12.5308 3.00171 12.4917 3.10327C12.4526 3.20093 12.4331 3.46851 12.4331 3.90601V4.47437H13.1245ZM23.9233 1.7146L22.98 9.48999H20.4077C20.2671 8.54077 20.105 7.29077 19.9214 5.73999C19.8589 6.41968 19.771 7.10718 19.6577 7.80249L19.394 9.48999H16.8218L15.8198 1.7146H17.8589C17.8745 1.91772 18.0464 3.40015 18.3745 6.16187C18.3979 5.88062 18.5737 4.39819 18.9019 1.7146H20.8647L21.3452 6.16187C21.4194 4.86499 21.5991 3.38257 21.8843 1.7146H23.9233ZM30.7671 0.00366211L32.1792 9.48999H29.6538L29.5308 7.78491H28.646L28.4995 9.48999H25.9448L27.1987 0.00366211H30.7671ZM29.4604 6.10327C29.3354 5.02905 29.2104 3.70288 29.0854 2.12476C28.8354 3.93726 28.6792 5.26343 28.6167 6.10327H29.4604ZM34.9683 0.00366211V9.48999H32.5308V0.00366211H34.9683ZM38.2612 0.00366211V9.48999H35.8237V0.00366211H38.2612ZM41.3081 0.00366211H43.7925C44.4644 0.00366211 44.98 0.0563965 45.3394 0.161865C45.7026 0.267334 45.9741 0.419678 46.1538 0.618896C46.3374 0.818115 46.4604 1.0603 46.5229 1.34546C46.5894 1.62671 46.6226 2.06421 46.6226 2.65796V3.48413C46.6226 4.0896 46.5601 4.53101 46.4351 4.80835C46.3101 5.08569 46.0796 5.29858 45.7437 5.44702C45.4116 5.59546 44.9761 5.66968 44.437 5.66968H43.7749V9.48999H41.3081V0.00366211ZM43.7749 1.62671V4.04077C43.8452 4.04468 43.9058 4.04663 43.9565 4.04663C44.1831 4.04663 44.3394 3.99194 44.4253 3.88257C44.5151 3.76929 44.5601 3.53687 44.5601 3.1853V2.40601C44.5601 2.08179 44.5093 1.87085 44.4077 1.77319C44.3062 1.67554 44.0952 1.62671 43.7749 1.62671ZM52.6167 4.44507V6.34937C52.6167 7.04858 52.5815 7.56226 52.5112 7.89038C52.4409 8.2146 52.2905 8.51929 52.0601 8.80444C51.8296 9.08569 51.5327 9.29468 51.1694 9.4314C50.8101 9.56421 50.396 9.63062 49.9272 9.63062C49.4038 9.63062 48.9604 9.57397 48.5972 9.46069C48.2339 9.34351 47.9507 9.16968 47.7476 8.93921C47.5483 8.70483 47.4058 8.42358 47.3198 8.09546C47.2339 7.76343 47.1909 7.26733 47.1909 6.60718V4.61499C47.1909 3.89233 47.269 3.32788 47.4253 2.92163C47.5815 2.51538 47.8628 2.18921 48.269 1.94312C48.6753 1.69702 49.1948 1.57397 49.8276 1.57397C50.3589 1.57397 50.814 1.65405 51.1929 1.81421C51.5757 1.97046 51.8706 2.17554 52.0776 2.42944C52.2847 2.68335 52.4253 2.94507 52.4995 3.2146C52.5776 3.48413 52.6167 3.89429 52.6167 4.44507ZM50.2495 3.85913C50.2495 3.46069 50.228 3.21069 50.1851 3.10913C50.1421 3.00366 50.0503 2.95093 49.9097 2.95093C49.769 2.95093 49.6753 3.00366 49.6284 3.10913C49.5815 3.21069 49.5581 3.46069 49.5581 3.85913V7.3689C49.5581 7.73608 49.5815 7.97632 49.6284 8.0896C49.6753 8.19897 49.7671 8.25366 49.9038 8.25366C50.0444 8.25366 50.1362 8.20288 50.1792 8.10132C50.2261 7.99976 50.2495 7.78101 50.2495 7.44507V3.85913ZM58.2358 4.19897H56.1382V3.7771C56.1382 3.41772 56.1167 3.19116 56.0737 3.09741C56.0347 2.99976 55.9331 2.95093 55.769 2.95093C55.6362 2.95093 55.5366 2.99585 55.4702 3.08569C55.4038 3.17163 55.3706 3.30249 55.3706 3.47827C55.3706 3.71655 55.3862 3.89233 55.4175 4.00562C55.4526 4.11499 55.5522 4.23608 55.7163 4.3689C55.8843 4.50171 56.2261 4.69507 56.7417 4.94897C57.4292 5.28491 57.8804 5.60132 58.0952 5.89819C58.3101 6.19507 58.4175 6.62671 58.4175 7.19312C58.4175 7.82593 58.3354 8.30444 58.1714 8.62866C58.0073 8.94897 57.7319 9.19702 57.3452 9.3728C56.9624 9.54468 56.4995 9.63062 55.9565 9.63062C55.355 9.63062 54.8394 9.53687 54.4097 9.34937C53.9839 9.16187 53.6909 8.90796 53.5308 8.58765C53.3706 8.26733 53.2905 7.78296 53.2905 7.13452V6.75952H55.3882V7.25171C55.3882 7.66968 55.4136 7.94116 55.4644 8.06616C55.519 8.19116 55.6245 8.25366 55.7808 8.25366C55.9487 8.25366 56.0659 8.21265 56.1323 8.13062C56.1987 8.04468 56.2319 7.86694 56.2319 7.59741C56.2319 7.22632 56.189 6.9939 56.103 6.90015C56.0132 6.8064 55.5542 6.52905 54.7261 6.06812C54.0308 5.67749 53.6069 5.32397 53.4546 5.00757C53.3022 4.68726 53.2261 4.30835 53.2261 3.87085C53.2261 3.24976 53.3081 2.79272 53.4722 2.49976C53.6362 2.20288 53.9136 1.97437 54.3042 1.81421C54.6987 1.65405 55.1558 1.57397 55.6753 1.57397C56.1909 1.57397 56.6284 1.64038 56.9878 1.77319C57.3511 1.9021 57.6284 2.07397 57.8198 2.28882C58.0151 2.50366 58.1323 2.70288 58.1714 2.88647C58.2144 3.07007 58.2358 3.35718 58.2358 3.7478V4.19897ZM61.5464 0.67749V1.9021H62.1851V3.13257H61.5464V7.29272C61.5464 7.80444 61.5718 8.0896 61.6226 8.14819C61.6772 8.20679 61.8979 8.23608 62.2847 8.23608V9.48999H61.3296C60.7905 9.48999 60.4058 9.46851 60.1753 9.42554C59.9448 9.37866 59.7417 9.27515 59.5659 9.11499C59.3901 8.95093 59.2808 8.76538 59.2378 8.55835C59.1948 8.34741 59.1733 7.85522 59.1733 7.08179V3.13257H58.6636V1.9021H59.1733V0.67749H61.5464ZM67.5405 4.19897H65.4429V3.7771C65.4429 3.41772 65.4214 3.19116 65.3784 3.09741C65.3394 2.99976 65.2378 2.95093 65.0737 2.95093C64.9409 2.95093 64.8413 2.99585 64.7749 3.08569C64.7085 3.17163 64.6753 3.30249 64.6753 3.47827C64.6753 3.71655 64.6909 3.89233 64.7222 4.00562C64.7573 4.11499 64.8569 4.23608 65.021 4.3689C65.189 4.50171 65.5308 4.69507 66.0464 4.94897C66.7339 5.28491 67.1851 5.60132 67.3999 5.89819C67.6147 6.19507 67.7222 6.62671 67.7222 7.19312C67.7222 7.82593 67.6401 8.30444 67.4761 8.62866C67.312 8.94897 67.0366 9.19702 66.6499 9.3728C66.2671 9.54468 65.8042 9.63062 65.2612 9.63062C64.6597 9.63062 64.144 9.53687 63.7144 9.34937C63.2886 9.16187 62.9956 8.90796 62.8354 8.58765C62.6753 8.26733 62.5952 7.78296 62.5952 7.13452V6.75952H64.6929V7.25171C64.6929 7.66968 64.7183 7.94116 64.769 8.06616C64.8237 8.19116 64.9292 8.25366 65.0854 8.25366C65.2534 8.25366 65.3706 8.21265 65.437 8.13062C65.5034 8.04468 65.5366 7.86694 65.5366 7.59741C65.5366 7.22632 65.4937 6.9939 65.4077 6.90015C65.3179 6.8064 64.8589 6.52905 64.0308 6.06812C63.3354 5.67749 62.9116 5.32397 62.7593 5.00757C62.6069 4.68726 62.5308 4.30835 62.5308 3.87085C62.5308 3.24976 62.6128 2.79272 62.7769 2.49976C62.9409 2.20288 63.2183 1.97437 63.6089 1.81421C64.0034 1.65405 64.4604 1.57397 64.98 1.57397C65.4956 1.57397 65.9331 1.64038 66.2925 1.77319C66.6558 1.9021 66.9331 2.07397 67.1245 2.28882C67.3198 2.50366 67.437 2.70288 67.4761 2.88647C67.519 3.07007 67.5405 3.35718 67.5405 3.7478V4.19897Z" fill="#D37D74"/>
</g>
<defs>
<clipPath id="clip0_1042_91">
<rect width="68" height="10" fill="white"/>
</clipPath>
</defs>
</svg>
