<svg width="82" height="12" viewBox="0 0 82 12" fill="none" xmlns="http://www.w3.org/2000/svg">
<g clip-path="url(#clip0_1042_118)">
<g opacity="0.8">
<path d="M4.39062 3.2063C3.54688 3.23755 2.85938 3.34692 2.32812 3.53442C1.98438 3.03442 1.70312 2.48755 1.48438 1.8938L2.14062 1.56567C2.51562 1.94067 3.0625 2.12817 3.78125 2.12817C4.46875 2.12817 5.1875 2.11255 5.9375 2.0813C6.6875 1.8938 7.25 1.80005 7.625 1.80005C7.90625 2.30005 8.125 2.7688 8.28125 3.2063C7.5 3.17505 6.79688 3.30005 6.17188 3.5813L3.875 4.61255L3.26562 4.09692L4.39062 3.2063ZM2.98438 9.9563C1.79688 9.7063 1.10938 9.11255 0.921875 8.17505C0.796875 7.48755 1.07812 6.7688 1.76562 6.0188L2.46875 6.3938C2 6.98755 1.84375 7.4563 2 7.80005C2.1875 8.17505 2.59375 8.42505 3.21875 8.55005C3.6875 8.6438 4.21875 8.67505 4.8125 8.6438C6.21875 8.5813 7.45312 8.31567 8.51562 7.84692C8.79688 8.34692 9.01562 8.81567 9.17188 9.25317C8.39062 9.62817 7.5625 9.86255 6.6875 9.9563C5.15625 10.1438 3.92188 10.1438 2.98438 9.9563ZM14.5156 7.28442L13.9531 8.2688L14.5156 8.55005V7.28442ZM14.5156 2.50317C14.4844 2.15942 14.4219 1.8938 14.3281 1.7063C14.2344 1.48755 14.0312 1.2688 13.7188 1.05005L14.1406 0.393799C14.9219 0.706299 15.5938 1.0188 16.1562 1.3313C15.9375 1.86255 15.8281 2.36255 15.8281 2.8313V3.25317L16.2031 3.81567C16.6406 3.31567 17.1094 2.92505 17.6094 2.6438C18.3281 2.23755 18.9062 2.22192 19.3438 2.59692C19.5625 2.78442 19.7031 3.06567 19.7656 3.44067C19.8281 3.81567 19.8281 4.25317 19.7656 4.75317C19.6719 5.87817 19.5781 7.00317 19.4844 8.12817C19.4531 8.56567 19.5469 8.78442 19.7656 8.78442C20.2969 8.78442 21.1094 8.34692 22.2031 7.47192V8.59692C21.7031 9.22192 21.0781 9.7063 20.3281 10.05C19.6094 10.3938 19.0156 10.3469 18.5469 9.90942C18.3281 9.72192 18.1875 9.44067 18.125 9.06567C18.0938 8.81567 18.0781 8.36255 18.0781 7.7063C18.0781 7.05005 18.125 6.2688 18.2188 5.36255C18.2812 4.67505 18.3125 4.2063 18.3125 3.9563C18.3125 3.67505 18.1875 3.56567 17.9375 3.62817C17.7188 3.69067 17.4531 3.87817 17.1406 4.19067C16.6719 4.69067 16.2344 5.15942 15.8281 5.59692V9.3938C15.8281 9.98755 15.6719 10.3782 15.3594 10.5657C15.1094 10.7219 14.7188 10.7688 14.1875 10.7063C14.1875 9.7688 13.9531 9.22192 13.4844 9.06567L12.9688 9.9563L11.6562 9.11255C12.6875 7.5188 13.5156 6.17505 14.1406 5.0813C13.7969 5.23755 13.4219 5.44067 13.0156 5.69067C12.7969 5.44067 12.4219 4.8938 11.8906 4.05005L12.3125 3.62817C12.6875 3.87817 12.9375 3.98755 13.0625 3.9563C13.4688 3.86255 13.9531 3.69067 14.5156 3.44067V2.50317ZM28.8594 4.05005C28.2656 4.17505 27.3438 4.2688 26.0938 4.3313C25.75 3.98755 25.4531 3.62817 25.2031 3.25317L25.6719 2.69067C26.0156 2.94067 26.375 3.0813 26.75 3.11255C27.375 3.1438 28.0781 3.09692 28.8594 2.97192V2.17505C28.8594 1.9563 28.8281 1.7688 28.7656 1.61255C28.7031 1.48755 28.5 1.2688 28.1562 0.956299L28.7656 0.487549C29.4531 0.737549 30.0312 0.987549 30.5 1.23755C30.2812 1.7688 30.1719 2.28442 30.1719 2.78442C30.8281 2.65942 31.4062 2.50317 31.9062 2.31567C32.1562 2.69067 32.3906 3.0813 32.6094 3.48755C31.9844 3.67505 31.1875 3.8313 30.2188 3.9563V5.03442C30.8125 5.00317 31.5312 4.86255 32.375 4.61255C32.5625 5.05005 32.7031 5.47192 32.7969 5.87817C32.0469 6.06567 31.1875 6.19067 30.2188 6.25317V7.75317C31.2812 8.15942 32.1875 8.65942 32.9375 9.25317C32.5625 9.78442 32.2031 10.2219 31.8594 10.5657C31.3281 10.0032 30.7656 9.59692 30.1719 9.34692C30.0781 10.0657 29.7188 10.4875 29.0938 10.6125C27.9375 10.8938 26.9531 10.8157 26.1406 10.3782C25.5781 10.0657 25.25 9.69067 25.1562 9.25317C25.0625 8.78442 25.1562 8.37817 25.4375 8.03442C25.6875 7.72192 26.0625 7.5188 26.5625 7.42505C27.2812 7.30005 28.0469 7.30005 28.8594 7.42505V6.30005C28.1406 6.36255 27.2656 6.40942 26.2344 6.44067C25.9844 6.15942 25.6719 5.73755 25.2969 5.17505L25.9062 4.80005C26.2188 5.0188 26.5781 5.1438 26.9844 5.17505C27.2656 5.2063 27.8906 5.19067 28.8594 5.12817V4.05005ZM28.6719 9.2063C28.7656 9.05005 28.8125 8.8938 28.8125 8.73755C27.9062 8.36255 27.1406 8.30005 26.5156 8.55005C26.2656 8.61255 26.1406 8.72192 26.1406 8.87817C26.2656 9.06567 26.4844 9.2063 26.7969 9.30005C27.1094 9.3938 27.4844 9.44067 27.9219 9.44067C28.3281 9.44067 28.5781 9.36255 28.6719 9.2063ZM45.875 4.7063C45.3438 4.2063 44.7344 3.80005 44.0469 3.48755L44.1875 3.34692C43.5938 3.47192 42.9844 3.69067 42.3594 4.00317C41.6406 4.37817 41.0938 4.80005 40.7188 5.2688C40.2812 5.8313 40.0938 6.3938 40.1562 6.9563C40.2188 7.5813 40.5625 8.03442 41.1875 8.31567C41.9062 8.65942 42.9375 8.8313 44.2812 8.8313L44.6094 10.2844C43.1719 10.3157 41.9219 10.1125 40.8594 9.67505C39.9219 9.2688 39.3281 8.5813 39.0781 7.61255C38.8594 6.7688 39 5.8938 39.5 4.98755C39.7812 4.5188 40.125 4.06567 40.5312 3.62817C40.0625 3.72192 39.5938 3.8313 39.125 3.9563C38.5938 4.11255 37.8438 4.34692 36.875 4.65942C36.3125 3.90942 35.9375 3.36255 35.75 3.0188L36.3125 2.50317C36.625 2.78442 36.9062 2.90942 37.1562 2.87817C37.5938 2.81567 39 2.56567 41.375 2.12817C42.25 1.97192 43.5156 1.80005 45.1719 1.61255C45.4531 2.0813 45.7031 2.56567 45.9219 3.06567L45.1719 3.15942C45.6719 3.28442 46.1562 3.56567 46.625 4.00317L45.875 4.7063ZM44.75 5.69067C44.2812 4.97192 43.7812 4.3938 43.25 3.9563L43.8125 3.53442C44.4375 3.81567 45.0781 4.25317 45.7344 4.84692L44.75 5.69067ZM55.2969 3.72192C54.8594 3.28442 54.3281 2.98755 53.7031 2.8313L54.2656 3.15942C53.8906 4.12817 53.5469 4.9563 53.2344 5.6438C52.4219 7.5188 51.6719 8.69067 50.9844 9.15942C50.3594 9.59692 49.7812 9.61255 49.25 9.2063C48.6875 8.7688 48.3594 8.06567 48.2656 7.09692C48.1719 5.87817 48.4688 4.78442 49.1562 3.81567C49.8125 2.90942 50.6406 2.31567 51.6406 2.03442C53.4844 1.53442 55 1.78442 56.1875 2.78442C57.1875 3.62817 57.6875 4.6438 57.6875 5.8313C57.6875 7.05005 57.3125 8.0188 56.5625 8.73755C56.1562 9.1438 55.5625 9.47192 54.7812 9.72192C54.0625 9.97192 53.2969 10.0969 52.4844 10.0969L52.1562 9.53442C52.8438 9.37817 53.5781 9.11255 54.3594 8.73755C55.1094 8.3938 55.625 7.86255 55.9062 7.1438C56.0938 6.67505 56.1719 6.1438 56.1406 5.55005C56.0781 4.8313 55.7969 4.22192 55.2969 3.72192ZM52.1562 4.84692C52.3438 4.44067 52.4531 4.06567 52.4844 3.72192C52.5156 3.40942 52.4844 3.1438 52.3906 2.92505C51.8281 3.05005 51.25 3.40942 50.6562 4.00317C50.0625 4.62817 49.7188 5.3313 49.625 6.11255C49.5312 6.80005 49.625 7.30005 49.9062 7.61255C50.0625 7.80005 50.1875 7.87817 50.2812 7.84692C50.3438 7.84692 50.4688 7.72192 50.6562 7.47192C51.25 6.72192 51.75 5.84692 52.1562 4.84692ZM78.6406 1.94067C77.9844 2.56567 77.25 3.69067 76.4375 5.31567C77.25 5.31567 78.0312 5.42505 78.7812 5.6438L78.9688 4.80005C79.0312 4.55005 78.8906 4.28442 78.5469 4.00317L79.1094 3.3938C79.6719 3.7063 80.2188 4.05005 80.75 4.42505C80.5625 5.11255 80.3906 5.67505 80.2344 6.11255C80.9531 6.4563 81.6094 6.92505 82.2031 7.5188C81.8594 7.98755 81.4844 8.3938 81.0781 8.73755C80.6094 8.17505 80.1719 7.75317 79.7656 7.47192C79.4219 8.28442 78.9844 8.97192 78.4531 9.53442C77.9219 10.0969 77.0938 10.5188 75.9688 10.8L75.5 10.2375C76.2188 9.8938 76.7812 9.47192 77.1875 8.97192C77.75 8.31567 78.1719 7.5813 78.4531 6.7688C77.7969 6.4563 76.9844 6.30005 76.0156 6.30005C75.7344 6.86255 75.4531 7.44067 75.1719 8.03442C74.9219 8.56567 74.5938 8.97192 74.1875 9.25317C73.9062 9.47192 73.5469 9.55005 73.1094 9.48755C72.7656 9.4563 72.5 9.3313 72.3125 9.11255C72.0625 8.80005 71.9531 8.3938 71.9844 7.8938C72.0156 7.48755 72.1562 7.09692 72.4062 6.72192C72.6562 6.34692 72.9531 6.06567 73.2969 5.87817C73.7344 5.62817 74.25 5.4563 74.8438 5.36255C75.2812 4.61255 75.7656 3.72192 76.2969 2.69067C75.9531 2.81567 75.375 3.11255 74.5625 3.5813C74.1562 3.17505 73.7344 2.69067 73.2969 2.12817L73.8125 1.65942C74.0938 1.81567 74.2969 1.90942 74.4219 1.94067C74.5469 1.94067 74.7031 1.90942 74.8906 1.84692C75.8281 1.50317 76.6875 1.12817 77.4688 0.721924L78.6406 1.94067ZM73.3438 7.56567C73.2812 7.72192 73.3125 7.8313 73.4375 7.8938C73.6562 7.7688 73.9688 7.30005 74.375 6.48755C74.125 6.6438 73.9062 6.81567 73.7188 7.00317C73.5312 7.19067 73.4062 7.37817 73.3438 7.56567Z" fill="#323947"/>
<path d="M66.6406 4.84692C67.9531 5.34692 69.1562 6.05005 70.25 6.9563L69.0781 8.12817L68.375 7.3313C67.4062 8.48755 66.2812 9.36255 65 9.9563C63.75 10.55 62.1719 10.9875 60.2656 11.2688L59.8906 10.6594C62.0156 10.1282 63.625 9.48755 64.7188 8.73755C65.75 8.0188 66.5938 7.19067 67.25 6.25317L66.8281 5.87817L66.1719 5.40942L66.6406 4.84692ZM63.125 4.00317H64.25V0.346924L65.75 0.440674V2.12817H66.9219L67.7656 1.61255L68.9375 2.50317L68.5156 2.92505H65.75V4.00317H68.3281L69.2188 3.44067L70.5312 4.37817L70.1094 4.80005H65.75V7.28442C65.75 8.03442 65.3594 8.40942 64.5781 8.40942H63.6875C63.5625 7.97192 63.2812 7.7063 62.8438 7.61255V7.05005H63.7812C64.0938 7.05005 64.25 6.92505 64.25 6.67505V4.80005H59.6562L59.375 4.00317H61.7188V1.37817L63.125 1.47192V4.00317ZM62.1875 7.3313C61.75 7.67505 61.1406 8.0813 60.3594 8.55005L59.7969 7.98755C60.8906 7.1438 61.7969 6.09692 62.5156 4.84692L63.9219 5.69067C63.3281 6.34692 62.75 6.8938 62.1875 7.3313Z" fill="#E68A7E"/>
</g>
</g>
<defs>
<clipPath id="clip0_1042_118">
<rect width="82" height="12" fill="white"/>
</clipPath>
</defs>
</svg>
